<svg width="92" height="93" viewBox="0 0 92 93" fill="none" xmlns="http://www.w3.org/2000/svg">
<path d="M60.149 34.6826L29.949 58.6826C29.349 59.1826 29.149 60.1826 29.749 60.7826C30.049 61.1826 30.449 61.3826 30.949 61.3826C31.249 61.3826 31.649 61.2826 31.849 61.0826L62.049 37.0826C62.649 36.5826 62.849 35.5826 62.249 34.9826C61.749 34.2826 60.849 34.1826 60.149 34.6826Z" fill="#333333"/>
<path d="M38.0499 45.3827C38.4499 45.3827 38.8499 45.3827 39.2499 45.2827C43.3499 44.6827 46.2499 40.7827 45.5499 36.5827C45.2499 34.5827 44.1499 32.7827 42.5499 31.5827C40.9499 30.3827 38.9499 29.8827 36.9499 30.1827C34.9499 30.4827 33.1499 31.5827 31.9499 33.1827C30.7499 34.7827 30.2499 36.7827 30.5499 38.7827C31.1499 42.6827 34.4499 45.3827 38.0499 45.3827ZM37.3499 33.2827C37.5499 33.2827 37.8499 33.1827 38.0499 33.1827C40.2499 33.1827 42.2499 34.7827 42.5499 37.0827C42.9499 39.5827 41.2499 41.8827 38.7499 42.2827C36.2499 42.6827 33.9499 40.9827 33.5499 38.4827C33.1499 35.9827 34.9499 33.6827 37.3499 33.2827Z" fill="#333333"/>
<path d="M54.0492 50.3828C49.8492 50.3828 46.4492 53.7828 46.4492 57.9828C46.4492 62.1828 49.8492 65.5828 54.0492 65.5828C58.2492 65.5828 61.6492 62.1828 61.6492 57.9828C61.5492 53.7828 58.1492 50.3828 54.0492 50.3828ZM54.0492 62.4828C51.5492 62.4828 49.4492 60.3828 49.4492 57.8828C49.4492 55.3828 51.5492 53.2828 54.0492 53.2828C56.5492 53.2828 58.6492 55.3828 58.6492 57.8828C58.5492 60.4828 56.5492 62.4828 54.0492 62.4828Z" fill="#333333"/>
<path d="M91.4492 46.8824C91.4492 46.7824 91.5492 46.5824 91.5492 46.4824C91.5492 42.1824 87.0492 39.9824 83.1492 38.0824C80.3492 36.6824 77.3492 35.1824 76.5492 33.3824C75.7492 31.4824 76.8492 28.3824 77.9492 25.4824C79.4492 21.3824 80.9492 17.1824 78.1492 14.3824C75.3492 11.5824 71.3492 12.5824 67.3492 13.4824C64.5492 14.0824 61.6492 14.7824 59.7492 13.9824C57.8492 13.1824 56.2492 10.6824 54.7492 8.28242C52.5492 4.88242 50.1492 0.982422 45.9492 0.982422C41.7492 0.982422 39.3492 4.88242 37.2492 8.38242C35.7492 10.8824 34.2492 13.3824 32.3492 14.1824C30.4492 14.9824 27.4492 14.2824 24.6492 13.5824C20.6492 12.5824 16.5492 11.5824 13.8492 14.2824C11.0492 17.0824 12.4492 21.2824 13.7492 25.3824C14.7492 28.3824 15.6492 31.3824 14.8492 33.3824C14.0492 35.2824 11.2492 36.6824 8.54922 38.0824C4.74922 40.0824 0.449219 42.2824 0.449219 46.4824C0.449219 46.5824 0.449219 46.7824 0.549219 46.8824C0.549219 46.9824 0.449219 47.1824 0.449219 47.2824C0.449219 51.4824 4.74922 53.7824 8.54922 55.6824C11.2492 57.0824 14.0492 58.4824 14.8492 60.3824C15.6492 62.2824 14.6492 65.3824 13.7492 68.3824C12.4492 72.4824 11.0492 76.6824 13.8492 79.4824C16.6492 82.2824 20.7492 81.1824 24.6492 80.1824C27.4492 79.4824 30.4492 78.7824 32.3492 79.5824C34.2492 80.3824 35.7492 82.8824 37.2492 85.3824C39.3492 88.8824 41.7492 92.7824 45.9492 92.7824C50.1492 92.7824 52.6492 88.8824 54.7492 85.4824C56.2492 83.0824 57.8492 80.5824 59.7492 79.7824C61.7492 78.9824 64.5492 79.5824 67.3492 80.2824C71.2492 81.1824 75.3492 82.1824 78.1492 79.3824C80.9492 76.5824 79.4492 72.3824 77.9492 68.2824C76.8492 65.2824 75.7492 62.2824 76.5492 60.3824C77.3492 58.4824 80.2492 57.0824 83.1492 55.6824C87.0492 53.6824 91.5492 51.4824 91.5492 47.2824C91.5492 47.0824 91.4492 46.9824 91.4492 46.8824ZM81.7492 52.9824C78.4492 54.6824 74.9492 56.3824 73.7492 59.2824C72.4492 62.2824 73.8492 65.8824 75.0492 69.3824C76.2492 72.6824 77.4492 75.8824 75.9492 77.2824C74.3492 78.8824 71.2492 78.1824 67.9492 77.3824C64.6492 76.5824 61.3492 75.8824 58.4492 77.0824C55.6492 78.2824 53.8492 81.0824 52.1492 83.8824C50.2492 86.8824 48.4492 89.7824 45.8492 89.7824C43.3492 89.7824 41.5492 86.8824 39.6492 83.7824C37.9492 80.8824 36.1492 77.9824 33.3492 76.7824C30.4492 75.5824 27.0492 76.3824 23.7492 77.2824C20.4492 78.0824 17.3492 78.8824 15.7492 77.3824C14.2492 75.8824 15.2492 72.6824 16.3492 69.3824C17.4492 65.8824 18.6492 62.2824 17.3492 59.3824C16.1492 56.4824 12.8492 54.7824 9.64922 53.1824C6.34922 51.4824 3.24922 49.8824 3.24922 47.3824C3.24922 47.2824 3.24922 47.0824 3.14922 46.9824C3.14922 46.8824 3.24922 46.6824 3.24922 46.5824C3.24922 44.1824 6.34922 42.5824 9.64922 40.7824C12.8492 39.1824 16.1492 37.4824 17.3492 34.5824C18.5492 31.5824 17.4492 27.9824 16.3492 24.5824C15.2492 21.1824 14.2492 17.9824 15.7492 16.5824C17.3492 14.9824 20.4492 15.7824 23.7492 16.6824C27.0492 17.4824 30.4492 18.3824 33.3492 17.1824C36.1492 15.9824 37.9492 13.0824 39.6492 10.1824C41.5492 7.08242 43.2492 4.18242 45.8492 4.18242C48.4492 4.18242 50.2492 7.08242 52.1492 10.0824C53.9492 12.8824 55.7492 15.6824 58.4492 16.8824C61.3492 18.0824 64.6492 17.2824 67.9492 16.5824C71.2492 15.7824 74.3492 15.0824 75.9492 16.6824C77.4492 18.0824 76.2492 21.2824 75.0492 24.5824C73.7492 28.0824 72.4492 31.6824 73.7492 34.6824C74.9492 37.5824 78.4492 39.2824 81.7492 40.9824C85.2492 42.6824 88.4492 44.3824 88.4492 46.7824C88.4492 46.8824 88.4492 47.0824 88.5492 47.1824C88.5492 47.2824 88.4492 47.4824 88.4492 47.5824C88.5492 49.5824 85.2492 51.2824 81.7492 52.9824Z" fill="#FBD846"/>
</svg>
