<svg width="79" height="78" viewBox="0 0 79 78" fill="none" xmlns="http://www.w3.org/2000/svg">
<path d="M77.0636 74.6898C69.0562 74.6898 61.0274 74.6898 53.02 74.6898C39.7169 74.6898 26.4139 74.6898 13.1109 74.6898C9.26728 74.6898 5.44506 74.6898 1.60149 74.6898C2.13532 75.1096 2.66915 75.5295 3.20298 75.9494C3.20298 70.5747 3.20298 65.2001 3.20298 59.8254C3.20298 49.076 3.20298 38.3266 3.20298 27.5772C3.20298 19.5319 3.20298 11.4867 3.20298 3.45821C3.20298 2.76958 3.20298 2.09774 3.20298 1.40911C2.66915 1.82901 2.13532 2.24891 1.60149 2.6688C9.60893 2.6688 17.6377 2.6688 25.6452 2.6688C38.9482 2.6688 52.2512 2.6688 65.5543 2.6688C69.3978 2.6688 73.2201 2.6688 77.0636 2.6688C76.5298 2.24891 75.996 1.82901 75.4622 1.40911C75.4622 6.78381 75.4622 12.1585 75.4622 17.5332C75.4622 28.2826 75.4622 39.032 75.4622 49.7814C75.4622 57.8266 75.4622 65.8719 75.4622 73.9003C75.4622 74.589 75.4622 75.2608 75.4622 75.9494C75.4622 77.5787 78.6651 77.5787 78.6651 75.9494C78.6651 70.5747 78.6651 65.2001 78.6651 59.8254C78.6651 49.076 78.6651 38.3266 78.6651 27.5772C78.6651 19.5319 78.6651 11.4867 78.6651 3.45821C78.6651 2.76958 78.6651 2.09774 78.6651 1.40911C78.6651 0.720476 77.9391 0.149414 77.0636 0.149414C69.0562 0.149414 61.0274 0.149414 53.02 0.149414C39.7169 0.149414 26.4139 0.149414 13.1109 0.149414C9.26728 0.149414 5.44506 0.149414 1.60149 0.149414C0.726008 0.149414 0 0.720476 0 1.40911C0 6.78381 0 12.1585 0 17.5332C0 28.2826 0 39.032 0 49.7814C0 57.8266 0 65.8719 0 73.9003C0 74.589 0 75.2608 0 75.9494C0 76.6381 0.726008 77.2091 1.60149 77.2091C9.60893 77.2091 17.6377 77.2091 25.6452 77.2091C38.9482 77.2091 52.2512 77.2091 65.5543 77.2091C69.3978 77.2091 73.2201 77.2091 77.0636 77.2091C79.1349 77.2091 79.1349 74.6898 77.0636 74.6898Z" fill="#333333"/>
<path d="M37.8926 1.37897C37.8926 6.78734 37.8926 12.1957 37.8926 17.6041C37.8926 28.4208 37.8926 39.2375 37.8926 50.0543C37.8926 58.1499 37.8926 66.2456 37.8926 74.3243C37.8926 75.0173 37.8926 75.6933 37.8926 76.3863C37.8926 78.0257 41.1092 78.0257 41.1092 76.3863C41.1092 70.9779 41.1092 65.5695 41.1092 60.1612C41.1092 49.3444 41.1092 38.5277 41.1092 27.711C41.1092 19.6153 41.1092 11.5197 41.1092 3.44091C41.1092 2.74797 41.1092 2.07192 41.1092 1.37897C41.1092 -0.260439 37.8926 -0.260439 37.8926 1.37897Z" fill="#FBD846"/>
<path d="M1.60888 3.25372C9.65042 3.25372 17.7134 3.25372 25.7549 3.25372C39.1146 3.25372 52.4742 3.25372 65.8339 3.25372C69.6938 3.25372 73.5323 3.25372 77.3923 3.25372C79.4723 3.25372 79.4723 0.0371094 77.3923 0.0371094C69.3507 0.0371094 61.2878 0.0371094 53.2462 0.0371094C39.8866 0.0371094 26.5269 0.0371094 13.1672 0.0371094C9.30731 0.0371094 5.46882 0.0371094 1.60888 0.0371094C-0.471191 0.0371094 -0.471191 3.25372 1.60888 3.25372Z" fill="#333333"/>
<path d="M77.3917 74.448C69.3502 74.448 61.2872 74.448 53.2457 74.448C39.886 74.448 26.5263 74.448 13.1667 74.448C9.30673 74.448 5.46824 74.448 1.60831 74.448C2.14441 74.9841 2.68051 75.5202 3.21661 76.0563C3.21661 67.8861 3.21661 59.7374 3.21661 51.5672C3.21661 38.3147 3.21661 25.0623 3.21661 11.8099C3.21661 8.4217 3.21661 5.03354 3.21661 1.62393C2.68051 2.16003 2.14441 2.69613 1.60831 3.23224C9.64984 3.23224 17.7128 3.23224 25.7543 3.23224C39.114 3.23224 52.4737 3.23224 65.8333 3.23224C69.6933 3.23224 73.5318 3.23224 77.3917 3.23224C76.8556 2.69613 76.3195 2.16003 75.7834 1.62393C75.7834 9.79412 75.7834 17.9429 75.7834 26.1131C75.7834 39.3655 75.7834 52.6179 75.7834 65.8704C75.7834 69.2585 75.7834 72.6467 75.7834 76.0563C75.7834 78.1364 79 78.1364 79 76.0563C79 67.8861 79 59.7374 79 51.5672C79 38.3147 79 25.0623 79 11.8099C79 8.4217 79 5.03354 79 1.62393C79 0.744724 78.2709 0.015625 77.3917 0.015625C69.3502 0.015625 61.2872 0.015625 53.2457 0.015625C39.886 0.015625 26.5263 0.015625 13.1667 0.015625C9.30673 0.015625 5.46824 0.015625 1.60831 0.015625C0.729099 0.015625 0 0.744724 0 1.62393C0 9.79412 0 17.9429 0 26.1131C0 39.3655 0 52.6179 0 65.8704C0 69.2585 0 72.6467 0 76.0563C0 76.9355 0.729099 77.6646 1.60831 77.6646C9.64984 77.6646 17.7128 77.6646 25.7543 77.6646C39.114 77.6646 52.4737 77.6646 65.8333 77.6646C69.6933 77.6646 73.5318 77.6646 77.3917 77.6646C79.4718 77.6646 79.4718 74.448 77.3917 74.448Z" fill="#333333"/>
<path d="M43.5527 35.42C43.5527 37.7145 43.5527 39.9875 43.5527 42.2821C43.5527 44.3621 46.7693 44.3621 46.7693 42.2821C46.7693 39.9875 46.7693 37.7145 46.7693 35.42C46.7693 33.3613 43.5527 33.3613 43.5527 35.42Z" fill="#FBD846"/>
<path d="M32.2305 35.42C32.2305 37.7145 32.2305 39.9875 32.2305 42.2821C32.2305 44.3621 35.4471 44.3621 35.4471 42.2821C35.4471 39.9875 35.4471 37.7145 35.4471 35.42C35.4471 33.3613 32.2305 33.3613 32.2305 35.42Z" fill="#FBD846"/>
</svg>
