<svg width="87" height="87" viewBox="0 0 87 87" fill="none" xmlns="http://www.w3.org/2000/svg">
<path d="M85.1746 7.16742H69.0979L49.2775 0.700946C48.0873 0.3115 46.8253 0.192289 45.5832 0.35199C44.3411 0.51169 43.1503 0.946283 42.0973 1.62415L30.1547 9.29647C30.0258 9.37912 29.9145 9.48634 29.8271 9.61201C29.7397 9.73767 29.6779 9.87932 29.6452 10.0289C29.6126 10.1784 29.6097 10.3329 29.6367 10.4836C29.6638 10.6343 29.7202 10.7781 29.8029 10.907C29.8855 11.0358 29.9927 11.1471 30.1184 11.2346C30.2441 11.322 30.3857 11.3838 30.5353 11.4164C30.6848 11.4491 30.8393 11.452 30.99 11.4249C31.1407 11.3979 31.2845 11.3414 31.4134 11.2588L43.356 3.59663C44.1187 3.10683 44.9811 2.7935 45.8803 2.67952C46.7795 2.56554 47.6929 2.65377 48.5536 2.93778L68.557 9.44492C68.6731 9.4831 68.7946 9.50232 68.9169 9.50186H84.0114V29.0863H75.3386C75.1249 29.0866 74.9154 29.1455 74.7329 29.2567C74.5504 29.3678 74.4019 29.5269 74.3036 29.7167C72.9973 31.9264 71.0021 33.6466 68.6241 34.6133V29.373C70.4928 28.5759 72.4877 27.1891 73.7607 24.7713C73.8324 24.6356 73.8766 24.4872 73.891 24.3344C73.9053 24.1816 73.8894 24.0275 73.8442 23.8809C73.7989 23.7343 73.7253 23.598 73.6274 23.4799C73.5295 23.3617 73.4093 23.264 73.2736 23.1923C73.138 23.1206 72.9895 23.0763 72.8368 23.062C72.684 23.0476 72.5299 23.0635 72.3833 23.1088C72.2366 23.154 72.1004 23.2276 71.9822 23.3255C71.8641 23.4234 71.7663 23.5436 71.6946 23.6793C69.4781 27.9171 63.9674 28.1062 63.9369 28.1062C56.5554 28.1062 54.4243 22.9533 54.3389 22.7398C54.2543 22.5198 54.1051 22.3306 53.9109 22.197C53.7167 22.0635 53.4866 21.9918 53.251 21.9915H42.2966C41.8812 22.0021 41.4679 21.9295 41.081 21.7778C40.6941 21.6262 40.3415 21.3987 40.0439 21.1086C39.7464 20.8186 39.5099 20.4719 39.3484 20.089C39.187 19.7061 39.1038 19.2948 39.1038 18.8793C39.1038 18.4637 39.187 18.0524 39.3484 17.6695C39.5099 17.2866 39.7464 16.94 40.0439 16.6499C40.3415 16.3599 40.6941 16.1323 41.081 15.9807C41.4679 15.829 41.8812 15.7564 42.2966 15.767H55.3719C55.5291 15.7736 55.6861 15.7483 55.8333 15.6926C55.9805 15.637 56.1149 15.5521 56.2285 15.4432C56.3421 15.3343 56.4325 15.2035 56.4942 15.0587C56.556 14.914 56.5878 14.7582 56.5878 14.6008C56.5878 14.4434 56.556 14.2877 56.4942 14.1429C56.4325 13.9981 56.3421 13.8674 56.2285 13.7584C56.1149 13.6495 55.9805 13.5646 55.8333 13.509C55.6861 13.4533 55.5291 13.428 55.3719 13.4346H42.2966C41.5727 13.4206 40.8534 13.5511 40.1805 13.8184C39.5077 14.0858 38.8949 14.4846 38.3781 14.9916C37.8612 15.4985 37.4506 16.1035 37.1704 16.771C36.8901 17.4385 36.7457 18.1553 36.7457 18.8793C36.7457 19.6033 36.8901 20.32 37.1704 20.9875C37.4506 21.655 37.8612 22.26 38.3781 22.767C38.8949 23.2739 39.5077 23.6727 40.1805 23.9401C40.8534 24.2074 41.5727 24.3379 42.2966 24.3239H52.5209C53.495 26.1113 56.6143 30.4386 63.9613 30.4386C64.7465 30.4038 65.5267 30.2955 66.2917 30.1153V47.3999C66.2911 47.856 66.1097 48.2932 65.7872 48.6157C65.4647 48.9382 65.0274 49.1197 64.5713 49.1202H4.39453C3.93895 49.1197 3.50209 48.9389 3.17938 48.6173C2.85666 48.2957 2.67432 47.8595 2.67217 47.4039V17.4873C2.6727 17.0312 2.85413 16.594 3.17663 16.2715C3.49914 15.949 3.9364 15.7676 4.39249 15.767H34.1281C34.2853 15.7736 34.4423 15.7483 34.5895 15.6926C34.7367 15.637 34.8712 15.5521 34.9847 15.4432C35.0983 15.3343 35.1887 15.2035 35.2504 15.0587C35.3122 14.914 35.344 14.7582 35.344 14.6008C35.344 14.4434 35.3122 14.2877 35.2504 14.1429C35.1887 13.9981 35.0983 13.8674 34.9847 13.7584C34.8712 13.6495 34.7367 13.5646 34.5895 13.509C34.4423 13.4533 34.2853 13.428 34.1281 13.4346H4.39453C3.32083 13.4384 2.29218 13.8666 1.53296 14.6258C0.773736 15.385 0.345548 16.4136 0.341797 17.4873V47.4039C0.345548 48.4776 0.773736 49.5063 1.53296 50.2655C2.29218 51.0247 3.32083 51.4529 4.39453 51.4567H64.5713C65.645 51.4529 66.6737 51.0247 67.4329 50.2655C68.1921 49.5063 68.6203 48.4776 68.6241 47.4039V37.084C72.8049 35.7521 75.1454 32.7364 75.9995 31.4167H85.1746C85.4838 31.4167 85.7804 31.294 85.9992 31.0755C86.218 30.8571 86.3413 30.5607 86.3418 30.2515V8.33464C86.3418 8.02507 86.2188 7.72819 85.9999 7.50929C85.781 7.29039 85.4841 7.16742 85.1746 7.16742Z" fill="black"/>
<path d="M8.24614 38.5882V26.2958C9.47299 26.06 10.601 25.4618 11.4843 24.5784C12.3677 23.695 12.966 22.5671 13.2017 21.3402H33.1156C33.4165 21.3276 33.7009 21.1993 33.9093 20.982C34.1178 20.7646 34.2341 20.4751 34.2341 20.174C34.2341 19.8729 34.1178 19.5834 33.9093 19.3661C33.7009 19.1487 33.4165 19.0204 33.1156 19.0078H12.1464C11.8368 19.0078 11.5399 19.1308 11.321 19.3497C11.1021 19.5686 10.9791 19.8655 10.9791 20.175C10.9799 20.6877 10.8797 21.1954 10.6842 21.6693C10.4888 22.1432 10.2018 22.5739 9.8398 22.9368C9.47779 23.2998 9.04782 23.5879 8.57445 23.7846C8.10108 23.9813 7.59358 24.0828 7.08096 24.0834C6.77456 24.0855 6.48128 24.208 6.26443 24.4245C6.04757 24.641 5.92454 24.934 5.92188 25.2404V39.6456C5.92187 39.7988 5.95208 39.9505 6.01076 40.092C6.06945 40.2335 6.15545 40.362 6.26387 40.4702C6.37228 40.5785 6.50097 40.6643 6.64257 40.7227C6.78417 40.7811 6.93591 40.8111 7.08909 40.8108C8.12281 40.8124 9.1137 41.2239 9.84446 41.9551C10.5752 42.6862 10.9862 43.6773 10.9873 44.711C10.9873 44.8642 11.0175 45.0159 11.0762 45.1574C11.1348 45.2989 11.2209 45.4274 11.3293 45.5356C11.4377 45.6439 11.5664 45.7297 11.708 45.7881C11.8496 45.8465 12.0013 45.8765 12.1545 45.8762H56.8118C56.965 45.8765 57.1167 45.8465 57.2583 45.7881C57.3999 45.7297 57.5286 45.6439 57.637 45.5356C57.7454 45.4274 57.8314 45.2989 57.8901 45.1574C57.9488 45.0159 57.979 44.8642 57.979 44.711C57.9801 43.6773 58.3911 42.6862 59.1218 41.9551C59.8526 41.2239 60.8435 40.8124 61.8772 40.8108C62.0304 40.8111 62.1821 40.7811 62.3237 40.7227C62.4653 40.6643 62.594 40.5785 62.7024 40.4702C62.8108 40.362 62.8968 40.2335 62.9555 40.092C63.0142 39.9505 63.0444 39.7988 63.0444 39.6456V34.3748C63.051 34.2176 63.0257 34.0606 62.97 33.9134C62.9144 33.7662 62.8295 33.6318 62.7206 33.5182C62.6117 33.4046 62.4809 33.3142 62.3361 33.2525C62.1913 33.1907 62.0356 33.1589 61.8782 33.1589C61.7208 33.1589 61.5651 33.1907 61.4203 33.2525C61.2755 33.3142 61.1447 33.4046 61.0358 33.5182C60.9269 33.6318 60.842 33.7662 60.7864 33.9134C60.7307 34.0606 60.7054 34.2176 60.712 34.3748V38.5882C59.4854 38.8245 58.3577 39.4229 57.4744 40.3062C56.5911 41.1895 55.9927 42.3172 55.7564 43.5438H13.2017C12.9654 42.3172 12.367 41.1895 11.4837 40.3062C10.6004 39.4229 9.47276 38.8245 8.24614 38.5882Z" fill="#FBD846"/>
<path d="M32.9451 28.6092H35.7514C36.0522 28.5967 36.3366 28.4683 36.545 28.251C36.7535 28.0336 36.8699 27.7442 36.8699 27.443C36.8699 27.1419 36.7535 26.8524 36.545 26.6351C36.3366 26.4178 36.0522 26.2894 35.7514 26.2768H34.8343V25.5265C34.8408 25.3692 34.8155 25.2123 34.7599 25.0651C34.7042 24.9179 34.6194 24.7834 34.5104 24.6698C34.4015 24.5562 34.2707 24.4659 34.126 24.4041C33.9812 24.3424 33.8254 24.3105 33.6681 24.3105C33.5107 24.3105 33.3549 24.3424 33.2101 24.4041C33.0654 24.4659 32.9346 24.5562 32.8257 24.6698C32.7167 24.7834 32.6319 24.9179 32.5762 25.0651C32.5206 25.2123 32.4953 25.3692 32.5019 25.5265V26.3053C31.5432 26.3777 30.6515 26.8244 30.0194 27.5488C29.3874 28.2732 29.0657 29.2172 29.1239 30.1768C29.1821 31.1365 29.6156 32.0347 30.3306 32.6774C31.0456 33.3201 31.9848 33.6556 32.9451 33.6116H34.3889C34.7438 33.6116 35.0841 33.7526 35.3351 34.0035C35.586 34.2544 35.727 34.5948 35.727 34.9496C35.727 35.3045 35.586 35.6448 35.3351 35.8958C35.0841 36.1467 34.7438 36.2877 34.3889 36.2877H31.5868C31.4295 36.2811 31.2726 36.3064 31.1254 36.362C30.9782 36.4177 30.8437 36.5025 30.7301 36.6115C30.6165 36.7204 30.5262 36.8512 30.4644 36.996C30.4027 37.1407 30.3709 37.2965 30.3709 37.4539C30.3709 37.6112 30.4027 37.767 30.4644 37.9118C30.5262 38.0565 30.6165 38.1873 30.7301 38.2963C30.8437 38.4052 30.9782 38.49 31.1254 38.5457C31.2726 38.6013 31.4295 38.6266 31.5868 38.6201H32.5019V39.3704C32.5144 39.6713 32.6428 39.9557 32.8601 40.1641C33.0774 40.3725 33.3669 40.4889 33.6681 40.4889C33.9692 40.4889 34.2587 40.3725 34.476 40.1641C34.6933 39.9557 34.8217 39.6713 34.8343 39.3704V38.5855C35.7937 38.5139 36.6865 38.0674 37.3193 37.3426C37.952 36.6179 38.274 35.6731 38.2155 34.7127C38.1569 33.7523 37.7226 32.8536 37.0065 32.211C36.2903 31.5685 35.35 31.2337 34.3889 31.2792H32.9451C32.7655 31.2862 32.5862 31.2569 32.4181 31.1929C32.25 31.129 32.0966 31.0318 31.967 30.9072C31.8373 30.7825 31.7342 30.633 31.6638 30.4675C31.5933 30.302 31.557 30.124 31.557 29.9442C31.557 29.7644 31.5933 29.5864 31.6638 29.4209C31.7342 29.2555 31.8373 29.1059 31.967 28.9813C32.0966 28.8566 32.25 28.7594 32.4181 28.6955C32.5862 28.6316 32.7655 28.6022 32.9451 28.6092Z" fill="#FBD846"/>
<path d="M20.8123 31.6223C20.5968 31.8385 20.4742 32.1304 20.4707 32.4357C20.4706 32.5129 20.4787 32.59 20.4951 32.6655C20.5094 32.7396 20.5319 32.8119 20.5622 32.881C20.5901 32.9528 20.6263 33.021 20.67 33.0844C20.7111 33.1475 20.7589 33.2061 20.8123 33.2592C20.8665 33.3136 20.9258 33.3626 20.9892 33.4057C21.0535 33.4473 21.1216 33.4828 21.1926 33.5114C21.2636 33.5408 21.3371 33.564 21.4122 33.5805C21.4873 33.5944 21.5636 33.6012 21.64 33.6009C21.9487 33.5998 22.2446 33.477 22.4635 33.2592C22.5177 33.2056 22.5667 33.1471 22.6099 33.0844C22.6506 33.0192 22.6866 32.9513 22.7177 32.881C22.7446 32.8108 22.7663 32.7388 22.7828 32.6655C22.7985 32.5899 22.806 32.5129 22.8051 32.4357C22.8034 32.2058 22.7337 31.9815 22.6048 31.7912C22.4759 31.6008 22.2935 31.4528 22.0807 31.3659C21.8679 31.2789 21.6341 31.2568 21.4087 31.3025C21.1834 31.3481 20.9766 31.4594 20.8144 31.6223H20.8123Z" fill="#FBD846"/>
<path d="M46.3544 33.093C46.3982 33.1553 46.4471 33.2138 46.5008 33.2678C46.6222 33.3902 46.7693 33.484 46.9314 33.5425C47.0935 33.601 47.2666 33.6226 47.4381 33.6059C47.6097 33.5891 47.7753 33.5344 47.9231 33.4457C48.0708 33.357 48.1969 33.2365 48.2923 33.093C48.336 33.0296 48.3722 32.9614 48.4001 32.8896C48.4304 32.8205 48.4529 32.7482 48.4672 32.6741C48.4834 32.5999 48.4916 32.5242 48.4916 32.4484C48.4982 32.2911 48.4729 32.1342 48.4172 31.9869C48.3616 31.8397 48.2767 31.7053 48.1678 31.5917C48.0589 31.4781 47.9281 31.3877 47.7833 31.326C47.6386 31.2642 47.4828 31.2324 47.3254 31.2324C47.168 31.2324 47.0123 31.2642 46.8675 31.326C46.7228 31.3877 46.592 31.4781 46.483 31.5917C46.3741 31.7053 46.2892 31.8397 46.2336 31.9869C46.1779 32.1342 46.1527 32.2911 46.1592 32.4484C46.1597 32.5241 46.1671 32.5997 46.1816 32.6741C46.1978 32.7477 46.2202 32.8198 46.2487 32.8896C46.2783 32.9602 46.3137 33.0282 46.3544 33.093Z" fill="#FBD846"/>
<path d="M75.7755 50.7615C74.6869 49.906 73.3169 49.4902 71.9364 49.5964C70.556 49.7026 69.2657 50.323 68.3207 51.3349L60.9453 59.3082C60.834 59.4192 60.7463 59.5516 60.6875 59.6974C60.6286 59.8431 60.5998 59.9993 60.6027 60.1565C60.6057 60.3136 60.6404 60.4686 60.7047 60.612C60.7691 60.7555 60.8617 60.8844 60.9771 60.9912C61.0925 61.098 61.2282 61.1803 61.3762 61.2333C61.5243 61.2863 61.6814 61.3089 61.8384 61.2996C61.9953 61.2904 62.1487 61.2495 62.2895 61.1795C62.4303 61.1095 62.5554 61.0118 62.6575 60.8923L70.0329 52.919C70.5769 52.3359 71.32 51.9785 72.1151 51.9175C72.9101 51.8565 73.6991 52.0963 74.3256 52.5896C74.6542 52.8505 74.9277 53.1742 75.1301 53.5417C75.3325 53.9093 75.4598 54.3134 75.5047 54.7306C75.5495 55.1479 75.511 55.5698 75.3913 55.972C75.2716 56.3742 75.0732 56.7486 74.8075 57.0734L61.9681 72.7759C61.0357 73.9195 59.7074 74.6707 58.2469 74.8806L33.3937 78.4778C32.1312 78.6642 30.9285 79.1386 29.8787 79.8643C28.829 80.5899 27.9603 81.5475 27.34 82.6627L26.6608 83.8828H3.79836L15.6414 66.3806C17.336 63.8572 19.6888 61.8456 22.4448 60.5634C25.2008 59.2813 28.255 58.7776 31.2768 59.1069C33.2808 59.3148 35.2545 59.7507 37.1597 60.4063C38.454 60.869 39.8175 61.1083 41.1921 61.1139H53.0778C53.9889 61.115 54.8623 61.4774 55.5066 62.1217C56.1509 62.7659 56.5133 63.6394 56.5143 64.5505C56.5133 65.5339 56.1221 66.4767 55.4268 67.172C54.7314 67.8674 53.7886 68.2585 52.8053 68.2596H41.916C40.1336 68.2593 38.4072 68.8822 37.0356 70.0206L34.4775 72.1435C34.2487 72.344 34.1071 72.6258 34.083 72.9291C34.0589 73.2323 34.1542 73.533 34.3485 73.7671C34.5428 74.0011 34.8208 74.1501 35.1233 74.1822C35.4258 74.2144 35.7289 74.1271 35.968 73.9391L38.5241 71.8161C39.4744 71.0286 40.6696 70.5971 41.9038 70.596H52.8012C54.4028 70.5939 55.9383 69.9567 57.0708 68.8242C58.2033 67.6916 58.8405 66.1562 58.8427 64.5546C58.8405 63.0252 58.232 61.5591 57.1506 60.4777C56.0692 59.3962 54.6031 58.7877 53.0737 58.7856H41.1921C40.0828 58.7796 38.9825 58.585 37.9385 58.2101C35.8653 57.4931 33.7168 57.0155 31.535 56.7867C28.091 56.4096 24.6093 56.982 21.4673 58.442C18.3252 59.9019 15.6424 62.1936 13.7095 65.069L0.634262 84.3871C0.51312 84.5627 0.442399 84.7681 0.429779 84.981C0.41716 85.1939 0.463125 85.4062 0.562683 85.5948C0.66224 85.7835 0.811583 85.9412 0.99449 86.051C1.1774 86.1607 1.38687 86.2182 1.60017 86.2172H27.3481C27.5567 86.2159 27.761 86.1585 27.9399 86.0512C28.1187 85.9439 28.2655 85.7906 28.3649 85.6072L29.3816 83.7771C29.8276 82.9761 30.4519 82.2885 31.2061 81.7674C31.9603 81.2462 32.8243 80.9055 33.7312 80.7716L58.5905 77.1886C60.6286 76.8956 62.4823 75.8476 63.784 74.2522L76.6234 58.5497C77.086 57.986 77.4316 57.3357 77.6401 56.637C77.8486 55.9382 77.9158 55.2049 77.8378 54.4799C77.7598 53.7549 77.5382 53.0526 77.1858 52.4142C76.8335 51.7758 76.3575 51.2139 75.7856 50.7615H75.7755Z" fill="black"/>
</svg>
