<svg width="26" height="26" viewBox="0 0 26 26" fill="none" xmlns="http://www.w3.org/2000/svg">
<path d="M11.3234 21.552L14.6118 18.2636L20.0462 22.0538L18.8271 23.2728C18.0151 24.0848 16.8232 24.3861 15.7229 24.0574C12.3591 23.0525 9.3374 21.2102 6.65771 18.5305C3.97802 15.8508 2.13573 12.8291 1.13084 9.46531C0.80213 8.36502 1.10337 7.17309 1.91537 6.36109L3.13443 5.14203L6.92462 10.5764L3.63623 13.8648M15.7653 14.3722L15.8088 13.752C15.9963 11.0789 13.7149 8.88976 11.0518 9.18737M19.5698 14.8218L19.6484 13.7009C19.9872 8.87023 15.8645 4.91421 11.0519 5.45205M23.9751 15.2901L24.0943 13.5896C24.6084 6.26052 18.3534 0.258462 11.0517 1.07447" stroke="#99CB38" stroke-width="2"/>
</svg>
