<svg width="22" height="13" viewBox="0 0 22 13" fill="none" xmlns="http://www.w3.org/2000/svg">
<path d="M21.0242 11.3361C20.9986 11.2809 20.9748 11.2352 20.9526 11.1985C20.5859 10.5381 19.8851 9.7274 18.8507 8.76629L18.8288 8.74428L18.8179 8.73349L18.8068 8.72242H18.7957C18.3263 8.27488 18.029 7.97396 17.9045 7.8199C17.6767 7.52642 17.6256 7.22936 17.7501 6.92836C17.8381 6.70095 18.1685 6.22068 18.7406 5.4869C19.0415 5.09803 19.2798 4.78636 19.4558 4.55154C20.7251 2.86405 21.2754 1.78573 21.1066 1.31614L21.041 1.2064C20.997 1.14034 20.8833 1.0799 20.7001 1.02478C20.5165 0.969775 20.2818 0.960679 19.9956 0.997335L16.8263 1.01923C16.7749 1.00104 16.7016 1.00273 16.6061 1.02478C16.5107 1.04683 16.463 1.05789 16.463 1.05789L16.4078 1.08545L16.364 1.11856C16.3273 1.14045 16.287 1.17896 16.2429 1.234C16.1991 1.28885 16.1624 1.35322 16.1332 1.42657C15.7881 2.31429 15.3958 3.13965 14.9555 3.9026C14.684 4.35755 14.4347 4.75182 14.207 5.08565C13.9797 5.41937 13.7889 5.66525 13.635 5.82286C13.4808 5.98062 13.3416 6.10701 13.2167 6.20249C13.0919 6.298 12.9967 6.33836 12.9307 6.32359C12.8646 6.30883 12.8024 6.29418 12.7434 6.27954C12.6408 6.21347 12.5582 6.12362 12.496 6.00992C12.4334 5.89621 12.3913 5.75309 12.3693 5.58068C12.3474 5.40816 12.3345 5.25976 12.3308 5.13499C12.3274 5.01038 12.3289 4.83411 12.3364 4.6067C12.344 4.37917 12.3474 4.22522 12.3474 4.14451C12.3474 3.86568 12.3529 3.56306 12.3638 3.23659C12.3749 2.91012 12.3839 2.65144 12.3914 2.46088C12.3989 2.27012 12.4023 2.0683 12.4023 1.85553C12.4023 1.64277 12.3894 1.47591 12.3638 1.3548C12.3385 1.23385 12.2997 1.11644 12.2485 1.00262C12.1971 0.888909 12.1218 0.80095 12.0229 0.738508C11.9239 0.676142 11.8008 0.626651 11.6543 0.589879C11.2654 0.501882 10.7702 0.454279 10.1685 0.446878C8.80399 0.432231 7.92722 0.520344 7.53838 0.711102C7.38432 0.791699 7.2449 0.901821 7.12025 1.04112C6.98815 1.20259 6.96973 1.2907 7.06509 1.30519C7.50535 1.37114 7.81702 1.5289 8.00045 1.77833L8.06656 1.9105C8.11797 2.00586 8.16932 2.17468 8.2207 2.41674C8.272 2.6588 8.30511 2.92657 8.31968 3.2199C8.3563 3.75555 8.3563 4.21408 8.31968 4.59552C8.28295 4.97711 8.24826 5.27418 8.21515 5.48694C8.18204 5.69971 8.13254 5.87212 8.06656 6.00414C8.00045 6.13619 7.95647 6.2169 7.93442 6.2462C7.91242 6.27549 7.89407 6.29395 7.8795 6.3012C7.78414 6.33774 7.68496 6.35636 7.58232 6.35636C7.47952 6.35636 7.35487 6.30494 7.20817 6.20218C7.0615 6.09942 6.90929 5.95827 6.75153 5.7785C6.59376 5.59868 6.41584 5.34741 6.21768 5.02464C6.01968 4.70187 5.81424 4.32039 5.60147 3.88021L5.42544 3.56098C5.31539 3.35561 5.16507 3.05659 4.97431 2.66416C4.78343 2.27158 4.61472 1.89184 4.46806 1.52501C4.40944 1.37095 4.32136 1.25366 4.20399 1.17294L4.14891 1.13983C4.11229 1.11054 4.05351 1.07944 3.97288 1.04629C3.89213 1.01318 3.80787 0.989433 3.71976 0.974825L0.704443 0.996718C0.396316 0.996718 0.18725 1.06652 0.0771665 1.20594L0.0331099 1.27189C0.0111009 1.30862 0 1.36729 0 1.44804C0 1.52875 0.022009 1.62781 0.0660656 1.7451C0.506246 2.77964 0.984933 3.77737 1.50213 4.73844C2.01932 5.69952 2.46875 6.47369 2.85015 7.06026C3.23163 7.64726 3.62046 8.20126 4.01667 8.722C4.41287 9.24293 4.67512 9.57677 4.80344 9.72343C4.93191 9.87036 5.03282 9.98021 5.10617 10.0536L5.38134 10.3176C5.55741 10.4937 5.81597 10.7047 6.15713 10.9504C6.49837 11.1963 6.87614 11.4383 7.29065 11.677C7.70524 11.9152 8.18755 12.1096 8.73785 12.26C9.28808 12.4105 9.82362 12.4709 10.3445 12.4418H11.6101C11.8668 12.4196 12.0613 12.3389 12.1934 12.1996L12.2372 12.1444C12.2667 12.1006 12.2942 12.0326 12.3197 11.9411C12.3454 11.8494 12.3582 11.7483 12.3582 11.6384C12.3507 11.323 12.3747 11.0388 12.4296 10.7857C12.4844 10.5327 12.547 10.3419 12.6169 10.2134C12.6868 10.0851 12.7656 9.97678 12.8534 9.88898C12.9413 9.80098 13.004 9.74767 13.0408 9.72933C13.0773 9.71086 13.1065 9.69834 13.1285 9.69082C13.3046 9.63216 13.5118 9.68897 13.7505 9.86153C13.9889 10.0339 14.2126 10.2468 14.4218 10.4998C14.6309 10.7531 14.8822 11.0372 15.1756 11.3526C15.4692 11.6681 15.7259 11.9027 15.9459 12.057L16.1659 12.189C16.3128 12.2771 16.5036 12.3578 16.7384 12.4312C16.9728 12.5045 17.1782 12.5229 17.3545 12.4862L20.1716 12.4423C20.4503 12.4423 20.6671 12.3961 20.8209 12.3046C20.975 12.2129 21.0665 12.1119 21.0961 12.002C21.1255 11.892 21.1271 11.7671 21.1016 11.6276C21.0755 11.4884 21.0498 11.3911 21.0242 11.3361Z" fill="#99CB38"/>
</svg>
