<svg width="24" height="24" viewBox="0 0 24 24" fill="none" xmlns="http://www.w3.org/2000/svg">
<path d="M10.653 20.2524L13.7278 17.1776L18.8093 20.7217L17.6694 21.8615C16.9101 22.6208 15.7956 22.9025 14.7668 22.5951C11.6214 21.6555 8.79595 19.9328 6.29028 17.4272C3.78462 14.9215 2.06197 12.096 1.12234 8.9507C0.81498 7.92187 1.09666 6.80735 1.85592 6.04808L2.99581 4.9082L6.53986 9.98967L3.46502 13.0645M14.8064 13.5389L14.8471 12.959C15.0224 10.4595 12.8892 8.41253 10.399 8.69082M18.3638 13.9593L18.4373 12.9112C18.7541 8.39428 14.8991 4.69517 10.3991 5.19808M22.483 14.3972L22.5945 12.8072C23.0752 5.95404 17.2264 0.341775 10.3989 1.10479" stroke="#99CB38"/>
</svg>
