<svg width="22" height="17" viewBox="0 0 22 17" fill="none" xmlns="http://www.w3.org/2000/svg">
<path d="M0 0.644531V1.47014V15.3148V16.1404H21.6222V15.3148V1.47014V0.644531H0ZM13.1986 8.59573L11.236 10.5677C10.9974 10.7893 10.6241 10.7889 10.3956 10.577L8.42329 8.59573L8.44059 8.5788L1.31427 1.36527H20.3126L13.1813 8.57916L13.1986 8.59573ZM7.39623 8.58456L0.72074 15.0071V1.87808L7.39623 8.58456ZM7.90436 9.09521L9.89468 11.0949C10.1502 11.3331 10.4781 11.4527 10.8075 11.4527C11.1401 11.4527 11.4742 11.3306 11.7376 11.0852L13.7182 9.09521L20.2903 15.4197H1.32832L7.90436 9.09521ZM14.2263 8.58492L20.9015 1.87772V15.0071L14.2263 8.58492Z" fill="#99CB38"/>
</svg>
