<svg width="13" height="23" viewBox="0 0 13 23" fill="none" xmlns="http://www.w3.org/2000/svg">
<path d="M6.37184 4.11659C7.66834 4.11659 8.72271 5.17097 8.72271 6.46747C8.72271 7.76272 7.66834 8.81735 6.37184 8.81735C5.07659 8.81735 4.02096 7.76272 4.02096 6.46747C4.02096 5.17097 5.07659 4.11659 6.37184 4.11659ZM6.37184 12.1436C9.50371 12.1436 12.0496 9.59772 12.0496 6.46747C12.0496 3.33597 9.50371 0.789095 6.37184 0.789095C3.24071 0.789095 0.694088 3.33597 0.694088 6.46747C0.694088 9.5976 3.24071 12.1436 6.37184 12.1436ZM8.66896 16.7755C9.82484 16.5121 10.9396 16.0548 11.9661 15.4098C12.743 14.9202 12.9772 13.8931 12.4876 13.1161C11.9986 12.3373 10.9721 12.1032 10.1938 12.5928C7.86821 14.0557 4.87371 14.0551 2.54934 12.5928C1.77096 12.1032 0.744587 12.3375 0.256087 13.1161C-0.233538 13.8937 -3.77297e-05 14.9202 0.777087 15.4098C1.80346 16.0541 2.91821 16.5121 4.07409 16.7755L0.899713 19.9497C0.250713 20.5993 0.250712 21.6523 0.900337 22.3018C1.22546 22.6263 1.65084 22.789 2.07609 22.789C2.50209 22.789 2.92809 22.6265 3.25321 22.3018L6.37109 19.1826L9.49171 22.3018C10.1407 22.9515 11.1937 22.9515 11.8432 22.3018C12.4935 21.6523 12.4935 20.5986 11.8432 19.9497C11.8433 19.9497 8.66896 16.7755 8.66896 16.7755Z" fill="#99CB38"/>
</svg>
