<svg width="50" height="51" viewBox="0 0 50 51" fill="none" xmlns="http://www.w3.org/2000/svg">
<circle cx="25" cy="25.5" r="25" fill="#FBD846"/>
<path d="M20.3333 16.0123V32.8392C20.3333 32.8392 20.0233 36.3707 24.5683 36.3707C28.6667 36.3707 28.6667 32.8392 28.6667 32.8392V15.1419C28.6667 15.1419 28.6667 10.5 22.8333 10.5C17 10.5 17 15.1419 17 15.1419V32.8392C17 32.8392 17 39.5119 24.5 39.5119C32 39.5119 32 32.8392 32 32.8392V15.1419C32 14.4166 30.3333 14.4166 30.3333 15.1419V32.8392C30.3333 32.8392 30.94 38.1932 24.5 38.1932C18.6667 38.1932 18.6667 32.8392 18.6667 32.8392V15.1419C18.6667 15.1419 18.6667 11.8187 22.8333 11.8187C27 11.8187 27 15.1419 27 15.1419V32.8392C27 32.8392 27 34.9202 24.5683 34.9202C22.1367 34.9202 22 32.8392 22 32.8392V16.0123C22 15.287 20.3333 15.287 20.3333 16.0123Z" fill="white"/>
</svg>
