<svg width="32" height="32" viewBox="0 0 32 32" fill="none" xmlns="http://www.w3.org/2000/svg">
<path d="M18.1265 16.1937C18.1265 15.2409 17.4473 14.4455 16.5347 14.2164V9.01838C16.5347 8.73496 16.2969 8.50586 16.004 8.50586C15.7111 8.50586 15.4734 8.73496 15.4734 9.01838V14.2164C14.7311 14.4029 14.1501 14.9641 13.9569 15.6811H10.1673C9.87443 15.6811 9.63672 15.9102 9.63672 16.1937C9.63672 16.4771 9.87443 16.7062 10.1673 16.7062H13.9569C14.1941 17.5882 15.0182 18.2437 16.004 18.2437C17.1746 18.2437 18.1265 17.3243 18.1265 16.1937ZM16.004 17.2187C15.4188 17.2187 14.9428 16.759 14.9428 16.1937C14.9428 15.6284 15.4188 15.1686 16.004 15.1686C16.5893 15.1686 17.0653 15.6284 17.0653 16.1937C17.0653 16.759 16.5893 17.2187 16.004 17.2187Z" fill="black"/>
<path d="M16.0052 5.94381C16.2981 5.94381 16.5358 5.71471 16.5358 5.43129V4.91877C16.5358 4.63535 16.2981 4.40625 16.0052 4.40625C15.7123 4.40625 15.4746 4.63535 15.4746 4.91877V5.43129C15.4746 5.71471 15.7123 5.94381 16.0052 5.94381Z" fill="black"/>
<path d="M15.4746 26.9569V27.4694C15.4746 27.7528 15.7123 27.9819 16.0052 27.9819C16.2981 27.9819 16.5358 27.7528 16.5358 27.4694V26.9569C16.5358 26.6734 16.2981 26.4443 16.0052 26.4443C15.7123 26.4443 15.4746 26.6734 15.4746 26.9569Z" fill="black"/>
<path d="M27.6765 16.7067C27.9694 16.7067 28.2071 16.4776 28.2071 16.1942C28.2071 15.9107 27.9694 15.6816 27.6765 15.6816H27.1458C26.8529 15.6816 26.6152 15.9107 26.6152 16.1942C26.6152 16.4776 26.8529 16.7067 27.1458 16.7067H27.6765Z" fill="black"/>
<path d="M4.33139 15.6816C4.03849 15.6816 3.80078 15.9107 3.80078 16.1942C3.80078 16.4776 4.03849 16.7067 4.33139 16.7067H4.862C5.1549 16.7067 5.39261 16.4776 5.39261 16.1942C5.39261 15.9107 5.1549 15.6816 4.862 15.6816H4.33139Z" fill="black"/>
<path d="M23.8823 9.09553C24.0181 9.09553 24.154 9.0453 24.2574 8.94536L24.6326 8.58301C24.8401 8.38261 24.8401 8.0587 24.6326 7.8583C24.4251 7.65791 24.0898 7.65791 23.8823 7.8583L23.5072 8.22066C23.2997 8.42105 23.2997 8.74496 23.5072 8.94536C23.6106 9.04581 23.7465 9.09553 23.8823 9.09553Z" fill="#FBD846"/>
<path d="M7.74949 23.4423L7.37435 23.8046C7.16688 24.005 7.16688 24.3289 7.37435 24.5293C7.47782 24.6293 7.61366 24.6795 7.74949 24.6795C7.88533 24.6795 8.02117 24.6293 8.12463 24.5293L8.49978 24.167C8.70724 23.9666 8.70724 23.6427 8.49978 23.4423C8.29231 23.2419 7.95643 23.2419 7.74949 23.4423Z" fill="#FBD846"/>
<path d="M8.49978 8.22066L8.12463 7.8583C7.91717 7.65791 7.58182 7.65791 7.37435 7.8583C7.16688 8.0587 7.16688 8.38261 7.37435 8.58301L7.74949 8.94536C7.85296 9.0453 7.9888 9.09553 8.12463 9.09553C8.26047 9.09553 8.39631 9.0453 8.49978 8.94536C8.70724 8.74548 8.70724 8.42105 8.49978 8.22066Z" fill="#FBD846"/>
<path d="M16.0042 0.880859C7.22689 0.880859 0.0859375 7.77836 0.0859375 16.2565C0.0859375 24.7346 7.22689 31.6321 16.0042 31.6321C17.9017 31.6321 19.7604 31.3118 21.53 30.6793C21.8049 30.5814 21.945 30.2862 21.8436 30.0212C21.7417 29.7547 21.4372 29.6194 21.1618 29.7183C19.5105 30.3077 17.7754 30.607 16.0042 30.607C7.81215 30.607 1.14716 24.1693 1.14716 16.2565C1.14716 8.34367 7.81215 1.9059 16.0042 1.9059C24.1963 1.9059 30.8613 8.34367 30.8613 16.2565C30.8613 17.9683 30.5515 19.6437 29.9407 21.2377C29.8394 21.5037 29.9795 21.7984 30.2543 21.8962C30.5292 21.9962 30.8343 21.8593 30.9361 21.5939C31.5909 19.8856 31.9226 18.0903 31.9226 16.2565C31.9226 7.77836 24.7816 0.880859 16.0042 0.880859Z" fill="black"/>
<path d="M26.6173 21.9459V21.3817C26.6173 21.0982 26.3795 20.8691 26.0866 20.8691C25.7937 20.8691 25.556 21.0982 25.556 21.3817V21.948C24.9771 22.0618 24.4497 22.3585 24.0608 22.8029C23.7366 23.1729 23.5864 23.6465 23.6395 24.137C23.6936 24.6387 23.961 25.1041 24.3733 25.4137L25.556 26.3019V29.0889C24.94 28.8768 24.4948 28.313 24.4948 27.6457C24.4948 27.3623 24.2571 27.1332 23.9642 27.1332C23.6713 27.1332 23.4336 27.3623 23.4336 27.6457C23.4336 28.8829 24.3468 29.9182 25.556 30.1565V30.607C25.556 30.8905 25.7937 31.1195 26.0866 31.1195C26.3795 31.1195 26.6173 30.8905 26.6173 30.607V30.155C27.1962 30.0412 27.7236 29.7445 28.113 29.3001C28.4372 28.929 28.5869 28.4555 28.5338 27.965C28.4792 27.4637 28.2123 26.9989 27.8 26.6898L26.6173 25.8006V23.0135C27.2333 23.2257 27.6785 23.7895 27.6785 24.4568C27.6785 24.7402 27.9162 24.9693 28.2091 24.9693C28.502 24.9693 28.7397 24.7402 28.7397 24.4568C28.7397 23.2196 27.8265 22.1843 26.6173 21.9459ZM27.1484 27.4986C27.3336 27.6375 27.454 27.8471 27.4784 28.0716C27.5013 28.2817 27.4386 28.4831 27.3028 28.6379C27.1182 28.8486 26.8794 28.9962 26.6173 29.0864V27.0988L27.1484 27.4986ZM25.0249 24.6044C24.8392 24.465 24.7193 24.2554 24.6949 24.0304C24.6726 23.8207 24.7347 23.6198 24.8705 23.4645C25.0551 23.2539 25.2939 23.1063 25.556 23.0161V25.0031L25.0249 24.6044Z" fill="#FBD846"/>
</svg>
