<svg width="32" height="35" viewBox="0 0 32 35" fill="none" xmlns="http://www.w3.org/2000/svg">
<path d="M0.0859375 35.0006H31.9225L0.0859375 0.113281V35.0006ZM1.07444 30.1261H4.03993V29.0429H1.07444V25.7932H3.05143V24.71H1.07444V21.4603H4.03993V20.3771H1.07444V17.1274H3.05143V16.0442H1.07444V12.7945H4.03993V11.7113H1.07444V2.72818L29.5363 33.9174H1.07444V30.1261Z" fill="#333333"/>
<path d="M6.51118 15.2784V30.1261H20.0605L6.51118 15.2784ZM7.49968 17.8933L17.6743 29.0429H7.49968V17.8933Z" fill="#333333"/>
<path d="M31.9047 25.4547L30.6829 20.1003L12.4437 0.113281L8.7793 4.12878L27.0186 24.1158L31.9047 25.4547ZM30.5455 23.9653L27.5237 23.1377L13.1425 7.37844L15.4092 4.89462L29.7903 20.6539L30.5455 23.9653ZM12.4437 1.64496L14.7103 4.12878L12.4437 6.61261L10.177 4.12878L12.4437 1.64496Z" fill="#FBD846"/>
</svg>
