<svg width="32" height="33" viewBox="0 0 32 33" fill="none" xmlns="http://www.w3.org/2000/svg">
<path d="M30.869 31.7441C27.6615 31.7441 24.4455 31.7441 21.238 31.7441C15.9092 31.7441 10.5805 31.7441 5.25176 31.7441C3.71215 31.7441 2.1811 31.7441 0.641501 31.7441C0.855335 31.9216 1.06917 32.0991 1.283 32.2765C1.283 30.0051 1.283 27.7336 1.283 25.4622C1.283 20.9193 1.283 16.3765 1.283 11.8336C1.283 8.43355 1.283 5.03349 1.283 1.64054C1.283 1.34951 1.283 1.06558 1.283 0.774555C1.06917 0.952011 0.855335 1.12947 0.641501 1.30692C3.84901 1.30692 7.06507 1.30692 10.2726 1.30692C15.6013 1.30692 20.93 1.30692 26.2588 1.30692C27.7984 1.30692 29.3294 1.30692 30.869 1.30692C30.6552 1.12947 30.4414 0.952011 30.2275 0.774555C30.2275 3.04599 30.2275 5.31742 30.2275 7.58886C30.2275 12.1317 30.2275 16.6746 30.2275 21.2175C30.2275 24.6175 30.2275 28.0176 30.2275 31.4105C30.2275 31.7015 30.2275 31.9855 30.2275 32.2765C30.2275 32.965 31.5105 32.965 31.5105 32.2765C31.5105 30.0051 31.5105 27.7336 31.5105 25.4622C31.5105 20.9193 31.5105 16.3765 31.5105 11.8336C31.5105 8.43355 31.5105 5.03349 31.5105 1.64054C31.5105 1.34951 31.5105 1.06558 31.5105 0.774555C31.5105 0.483527 31.2197 0.242188 30.869 0.242188C27.6615 0.242188 24.4455 0.242188 21.238 0.242188C15.9092 0.242188 10.5805 0.242188 5.25176 0.242188C3.71215 0.242188 2.1811 0.242188 0.641501 0.242188C0.290814 0.242188 0 0.483527 0 0.774555C0 3.04599 0 5.31742 0 7.58886C0 12.1317 0 16.6746 0 21.2175C0 24.6175 0 28.0176 0 31.4105C0 31.7015 0 31.9855 0 32.2765C0 32.5675 0.290814 32.8089 0.641501 32.8089C3.84901 32.8089 7.06507 32.8089 10.2726 32.8089C15.6013 32.8089 20.93 32.8089 26.2588 32.8089C27.7984 32.8089 29.3294 32.8089 30.869 32.8089C31.6987 32.8089 31.6987 31.7441 30.869 31.7441Z" fill="#333333"/>
<path d="M15.1777 0.761819C15.1777 3.04748 15.1777 5.33315 15.1777 7.61881C15.1777 12.1901 15.1777 16.7615 15.1777 21.3328C15.1777 24.7541 15.1777 28.1755 15.1777 31.5897C15.1777 31.8826 15.1777 32.1683 15.1777 32.4611C15.1777 33.154 16.4662 33.154 16.4662 32.4611C16.4662 30.1755 16.4662 27.8898 16.4662 25.6041C16.4662 21.0328 16.4662 16.4615 16.4662 11.8901C16.4662 8.46879 16.4662 5.04744 16.4662 1.63323C16.4662 1.34038 16.4662 1.05467 16.4662 0.761819C16.4662 0.068977 15.1777 0.068977 15.1777 0.761819Z" fill="#FBD846"/>
<path d="M0.644436 1.55275C3.8656 1.55275 7.09534 1.55275 10.3165 1.55275C15.6679 1.55275 21.0193 1.55275 26.3708 1.55275C27.9169 1.55275 29.4545 1.55275 31.0006 1.55275C31.8339 1.55275 31.8339 0.193359 31.0006 0.193359C27.7795 0.193359 24.5497 0.193359 21.3286 0.193359C15.9772 0.193359 10.6257 0.193359 5.27432 0.193359C3.72816 0.193359 2.19059 0.193359 0.644436 0.193359C-0.18877 0.193359 -0.18877 1.55275 0.644436 1.55275Z" fill="#333333"/>
<path d="M31.0004 31.6419C27.7793 31.6419 24.5495 31.6419 21.3284 31.6419C15.977 31.6419 10.6255 31.6419 5.27411 31.6419C3.72796 31.6419 2.19039 31.6419 0.644232 31.6419C0.858976 31.8685 1.07372 32.095 1.28846 32.3216C1.28846 28.8687 1.28846 25.4249 1.28846 21.9721C1.28846 16.3714 1.28846 10.7707 1.28846 5.16999C1.28846 3.73809 1.28846 2.3062 1.28846 0.865243C1.07372 1.09181 0.858976 1.31837 0.644232 1.54494C3.86539 1.54494 7.09514 1.54494 10.3163 1.54494C15.6677 1.54494 21.0191 1.54494 26.3706 1.54494C27.9167 1.54494 29.4543 1.54494 31.0004 1.54494C30.7857 1.31837 30.571 1.09181 30.3562 0.865243C30.3562 4.3181 30.3562 7.76189 30.3562 11.2148C30.3562 16.8154 30.3562 22.4161 30.3562 28.0168C30.3562 29.4487 30.3562 30.8806 30.3562 32.3216C30.3562 33.2007 31.6447 33.2007 31.6447 32.3216C31.6447 28.8687 31.6447 25.4249 31.6447 21.9721C31.6447 16.3714 31.6447 10.7707 31.6447 5.16999C31.6447 3.73809 31.6447 2.3062 31.6447 0.865243C31.6447 0.493676 31.3526 0.185547 31.0004 0.185547C27.7793 0.185547 24.5495 0.185547 21.3284 0.185547C15.977 0.185547 10.6255 0.185547 5.27411 0.185547C3.72796 0.185547 2.19039 0.185547 0.644232 0.185547C0.292052 0.185547 0 0.493676 0 0.865243C0 4.3181 0 7.76189 0 11.2148C0 16.8154 0 22.4161 0 28.0168C0 29.4487 0 30.8806 0 32.3216C0 32.6932 0.292052 33.0013 0.644232 33.0013C3.86539 33.0013 7.09514 33.0013 10.3163 33.0013C15.6677 33.0013 21.0191 33.0013 26.3706 33.0013C27.9167 33.0013 29.4543 33.0013 31.0004 33.0013C31.8337 33.0013 31.8337 31.6419 31.0004 31.6419Z" fill="#333333"/>
<path d="M17.4434 15.1476C17.4434 16.1173 17.4434 17.078 17.4434 18.0477C17.4434 18.9267 18.7318 18.9267 18.7318 18.0477C18.7318 17.078 18.7318 16.1173 18.7318 15.1476C18.7318 14.2776 17.4434 14.2776 17.4434 15.1476Z" fill="#FBD846"/>
<path d="M12.9102 15.1476C12.9102 16.1173 12.9102 17.078 12.9102 18.0477C12.9102 18.9267 14.1986 18.9267 14.1986 18.0477C14.1986 17.078 14.1986 16.1173 14.1986 15.1476C14.1986 14.2776 12.9102 14.2776 12.9102 15.1476Z" fill="#FBD846"/>
</svg>
