<svg width="87" height="87" viewBox="0 0 87 87" fill="none" xmlns="http://www.w3.org/2000/svg">
<path d="M86.7559 86.7646H0.540909L86.7559 0.764648V86.7646ZM84.079 74.7486H76.0483V72.0784H84.079V64.0677H78.7252V61.3975H84.079V53.3868H76.0483V50.7166H84.079V42.7059H78.7252V40.0357H84.079V32.025H76.0483V29.3548H84.079V7.21058L7.00295 84.0944H84.079V74.7486Z" fill="#333333"></path>
<path d="M69.356 38.1478V74.7486H32.6637L69.356 38.1478ZM66.6791 44.5938L39.1258 72.0784H66.6791V44.5938Z" fill="#333333"></path>
<path d="M0.594002 63.2333L3.90265 50.0343L53.2955 0.764648L63.2188 10.6632L13.8259 59.9329L0.594002 63.2333ZM4.27474 59.5617L12.458 57.5217L51.4029 18.6739L45.2648 12.551L6.31989 51.3988L4.27474 59.5617ZM53.2955 4.54035L47.1573 10.6632L53.2955 16.786L59.4336 10.6632L53.2955 4.54035Z" fill="#FBD846"></path>
</svg>
