<svg width="87" height="87" fill="none" xmlns="http://www.w3.org/2000/svg"><path d="M86.756 86.765H.54l86.215-86v86Zm-2.677-12.016h-8.03v-2.67h8.03v-8.011h-5.354v-2.67h5.354v-8.011h-8.03v-2.67h8.03v-8.011h-5.354v-2.67h5.354v-8.011h-8.03v-2.67h8.03V7.21L7.003 84.094h77.076V74.75Z" fill="#333"/><path d="M69.356 38.148v36.6H32.664l36.692-36.6Zm-2.677 6.446L39.126 72.078h27.553V44.594Z" fill="#333"/><path d="m.594 63.233 3.309-13.199L53.295.764l9.924 9.9-49.393 49.269-13.232 3.3Zm3.68-3.671 8.184-2.04 38.945-38.848-6.138-6.123L6.32 51.399l-2.045 8.163ZM53.296 4.54l-6.138 6.123 6.139 6.123 6.138-6.123-6.139-6.123Z" fill="#FBD846"/></svg>