<svg width="92" height="93" fill="none" xmlns="http://www.w3.org/2000/svg"><path d="m60.149 34.683-30.2 24c-.6.5-.8 1.5-.2 2.1.3.4.7.6 1.2.6.3 0 .7-.1.9-.3l30.2-24c.6-.5.8-1.5.2-2.1-.5-.7-1.4-.8-2.1-.3ZM38.05 45.383c.4 0 .8 0 1.2-.1 4.1-.6 7-4.5 6.3-8.7-.3-2-1.4-3.8-3-5-1.6-1.2-3.6-1.7-5.6-1.4-2 .3-3.8 1.4-5 3-1.2 1.6-1.7 3.6-1.4 5.6.6 3.9 3.9 6.6 7.5 6.6Zm-.7-12.1c.2 0 .5-.1.7-.1 2.2 0 4.2 1.6 4.5 3.9.4 2.5-1.3 4.8-3.8 5.2-2.5.4-4.8-1.3-5.2-3.8-.4-2.5 1.4-4.8 3.8-5.2ZM54.05 50.383c-4.2 0-7.6 3.4-7.6 7.6 0 4.2 3.4 7.6 7.6 7.6 4.2 0 7.6-3.4 7.6-7.6-.1-4.2-3.5-7.6-7.6-7.6Zm0 12.1c-2.5 0-4.6-2.1-4.6-4.6 0-2.5 2.1-4.6 4.6-4.6 2.5 0 4.6 2.1 4.6 4.6-.1 2.6-2.1 4.6-4.6 4.6Z" fill="#333"/><path d="M91.45 46.882c0-.1.1-.3.1-.4 0-4.3-4.5-6.5-8.4-8.4-2.8-1.4-5.8-2.9-6.6-4.7-.8-1.9.3-5 1.4-7.9 1.5-4.1 3-8.3.2-11.1-2.8-2.8-6.8-1.8-10.8-.9-2.8.6-5.7 1.3-7.6.5-1.9-.8-3.5-3.3-5-5.7-2.2-3.4-4.6-7.3-8.8-7.3-4.2 0-6.6 3.9-8.7 7.4-1.5 2.5-3 5-4.9 5.8-1.9.8-4.9.1-7.7-.6-4-1-8.1-2-10.8.7-2.8 2.8-1.4 7-.1 11.1 1 3 1.9 6 1.1 8-.8 1.9-3.6 3.3-6.3 4.7-3.8 2-8.1 4.2-8.1 8.4 0 .1 0 .3.1.4 0 .1-.1.3-.1.4 0 4.2 4.3 6.5 8.1 8.4 2.7 1.4 5.5 2.8 6.3 4.7.8 1.9-.2 5-1.1 8-1.3 4.1-2.7 8.3.1 11.1 2.8 2.8 6.9 1.7 10.8.7 2.8-.7 5.8-1.4 7.7-.6 1.9.8 3.4 3.3 4.9 5.8 2.1 3.5 4.5 7.4 8.7 7.4 4.2 0 6.7-3.9 8.8-7.3 1.5-2.4 3.1-4.9 5-5.7 2-.8 4.8-.2 7.6.5 3.9.9 8 1.9 10.8-.9 2.8-2.8 1.3-7-.2-11.1-1.1-3-2.2-6-1.4-7.9.8-1.9 3.7-3.3 6.6-4.7 3.9-2 8.4-4.2 8.4-8.4 0-.2-.1-.3-.1-.4Zm-9.7 6.1c-3.3 1.7-6.8 3.4-8 6.3-1.3 3 .1 6.6 1.3 10.1 1.2 3.3 2.4 6.5.9 7.9-1.6 1.6-4.7.9-8 .1s-6.6-1.5-9.5-.3c-2.8 1.2-4.6 4-6.3 6.8-1.9 3-3.7 5.9-6.3 5.9-2.5 0-4.3-2.9-6.2-6-1.7-2.9-3.5-5.8-6.3-7-2.9-1.2-6.3-.4-9.6.5-3.3.8-6.4 1.6-8 .1-1.5-1.5-.5-4.7.6-8 1.1-3.5 2.3-7.1 1-10-1.2-2.9-4.5-4.6-7.7-6.2-3.3-1.7-6.4-3.3-6.4-5.8 0-.1 0-.3-.1-.4 0-.1.1-.3.1-.4 0-2.4 3.1-4 6.4-5.8 3.2-1.6 6.5-3.3 7.7-6.2 1.2-3 .1-6.6-1-10-1.1-3.4-2.1-6.6-.6-8 1.6-1.6 4.7-.8 8 .1 3.3.8 6.7 1.7 9.6.5 2.8-1.2 4.6-4.1 6.3-7 1.9-3.1 3.6-6 6.2-6s4.4 2.9 6.3 5.9c1.8 2.8 3.6 5.6 6.3 6.8 2.9 1.2 6.2.4 9.5-.3 3.3-.8 6.4-1.5 8 .1 1.5 1.4.3 4.6-.9 7.9-1.3 3.5-2.6 7.1-1.3 10.1 1.2 2.9 4.7 4.6 8 6.3 3.5 1.7 6.7 3.4 6.7 5.8 0 .1 0 .3.1.4 0 .1-.1.3-.1.4.1 2-3.2 3.7-6.7 5.4Z" fill="#FBD846"/></svg>