<svg width="87" height="87" fill="none" xmlns="http://www.w3.org/2000/svg"><path d="M85.175 7.167H69.098L49.278.701a8.425 8.425 0 0 0-7.18.923L30.154 9.296a1.165 1.165 0 1 0 1.258 1.963l11.943-7.662a6.088 6.088 0 0 1 5.198-.66l20.003 6.508c.116.038.238.057.36.057H84.01v19.584H75.34a1.167 1.167 0 0 0-1.035.63 11.729 11.729 0 0 1-5.68 4.897v-5.24c1.869-.797 3.864-2.184 5.137-4.602a1.17 1.17 0 0 0-1.378-1.662 1.168 1.168 0 0 0-.688.57c-2.217 4.238-7.728 4.427-7.758 4.427-7.382 0-9.513-5.153-9.598-5.366a1.167 1.167 0 0 0-1.088-.748H42.297a3.112 3.112 0 1 1 0-6.225h13.075a1.166 1.166 0 0 0 .856-2.009 1.167 1.167 0 0 0-.856-.323H42.297a5.446 5.446 0 1 0 0 10.889H52.52c.974 1.787 4.093 6.115 11.44 6.115a12.597 12.597 0 0 0 2.33-.324V47.4a1.723 1.723 0 0 1-1.72 1.72H4.395a1.724 1.724 0 0 1-1.723-1.716V17.487a1.722 1.722 0 0 1 1.72-1.72h29.736a1.166 1.166 0 0 0 .857-2.009 1.166 1.166 0 0 0-.857-.323H4.395a4.067 4.067 0 0 0-4.053 4.052v29.917a4.067 4.067 0 0 0 4.053 4.053H64.57a4.067 4.067 0 0 0 4.053-4.053v-10.32c4.18-1.332 6.521-4.348 7.376-5.667h9.175a1.167 1.167 0 0 0 1.167-1.166V8.335a1.167 1.167 0 0 0-1.167-1.168Z" fill="#000"/><path d="M8.246 38.588V26.296a6.246 6.246 0 0 0 4.956-4.956h19.914a1.167 1.167 0 0 0 0-2.332h-20.97a1.167 1.167 0 0 0-1.167 1.167 3.902 3.902 0 0 1-3.898 3.908 1.167 1.167 0 0 0-1.16 1.157v14.406A1.165 1.165 0 0 0 7.09 40.81a3.904 3.904 0 0 1 3.898 3.9 1.165 1.165 0 0 0 1.168 1.165h44.657a1.165 1.165 0 0 0 1.167-1.165 3.904 3.904 0 0 1 3.898-3.9 1.165 1.165 0 0 0 1.167-1.165v-5.271a1.166 1.166 0 0 0-2.008-.857 1.167 1.167 0 0 0-.324.857v4.213a6.251 6.251 0 0 0-4.956 4.956H13.202a6.251 6.251 0 0 0-4.956-4.956Z" fill="#FBD846"/><path d="M32.945 28.61h2.806a1.167 1.167 0 0 0 0-2.333h-.917v-.75a1.169 1.169 0 0 0-1.624-1.123 1.168 1.168 0 0 0-.708 1.122v.78a3.66 3.66 0 0 0 .443 7.306h1.444a1.338 1.338 0 0 1 0 2.676h-2.802a1.167 1.167 0 1 0 0 2.332h.915v.75a1.167 1.167 0 0 0 2.332 0v-.784a3.66 3.66 0 0 0-.445-7.307h-1.444a1.335 1.335 0 1 1 0-2.67ZM20.812 31.622a1.171 1.171 0 0 0-.341.814c0 .077.008.154.024.23.014.074.037.146.067.215a.99.99 0 0 0 .108.203 1.21 1.21 0 0 0 .32.321 1.308 1.308 0 0 0 .423.175 1.174 1.174 0 0 0 1.306-.7c.026-.07.047-.141.064-.215a1.165 1.165 0 0 0-1.968-1.043h-.003ZM46.354 33.093c.044.062.093.12.147.175a1.162 1.162 0 0 0 1.966-.594c.016-.074.025-.15.025-.226a1.166 1.166 0 1 0-2.333 0c0 .076.008.152.023.226a1.321 1.321 0 0 0 .172.419Z" fill="#FBD846"/><path d="M75.775 50.761a5.527 5.527 0 0 0-7.454.574l-7.376 7.973a1.165 1.165 0 0 0 .032 1.683 1.166 1.166 0 0 0 1.68-.099l7.376-7.973a3.18 3.18 0 0 1 4.293-.33 3.166 3.166 0 0 1 .482 4.484l-12.84 15.703a5.88 5.88 0 0 1-3.721 2.105l-24.853 3.597a8.318 8.318 0 0 0-6.054 4.185l-.68 1.22H3.799L15.641 66.38a16.66 16.66 0 0 1 15.636-7.274c2.004.208 3.977.644 5.883 1.3 1.294.462 2.658.701 4.032.707h11.886a3.44 3.44 0 0 1 3.436 3.437 3.713 3.713 0 0 1-3.709 3.709H41.916a7.64 7.64 0 0 0-4.88 1.76l-2.559 2.124a1.168 1.168 0 0 0 1.491 1.795l2.556-2.123a5.304 5.304 0 0 1 3.38-1.22H52.8a6.05 6.05 0 0 0 6.042-6.041 5.777 5.777 0 0 0-5.77-5.77h-11.88a9.784 9.784 0 0 1-3.255-.575 28.773 28.773 0 0 0-6.403-1.423 18.987 18.987 0 0 0-17.825 8.282L.633 84.387a1.168 1.168 0 0 0 .966 1.83h25.748a1.165 1.165 0 0 0 1.017-.61l1.017-1.83a5.977 5.977 0 0 1 4.35-3.005l24.858-3.583a8.21 8.21 0 0 0 5.194-2.937l12.84-15.702a5.49 5.49 0 0 0-.838-7.788h-.01Z" fill="#000"/></svg>