<svg width="13" height="23" fill="none" xmlns="http://www.w3.org/2000/svg"><path d="M6.372 4.117a2.353 2.353 0 0 1 2.35 2.35 2.353 2.353 0 0 1-2.35 2.35 2.354 2.354 0 0 1-2.351-2.35 2.354 2.354 0 0 1 2.35-2.35Zm0 8.027a5.682 5.682 0 0 0 5.678-5.677A5.683 5.683 0 0 0 6.372.79 5.684 5.684 0 0 0 .694 6.467a5.683 5.683 0 0 0 5.678 5.677Zm2.297 4.632c1.156-.264 2.27-.721 3.297-1.366a1.664 1.664 0 0 0-1.772-2.817 7.208 7.208 0 0 1-7.645 0A1.663 1.663 0 0 0 .777 15.41a10.649 10.649 0 0 0 3.297 1.366L.9 19.95a1.664 1.664 0 0 0 2.353 2.352l3.118-3.12 3.12 3.12a1.662 1.662 0 1 0 2.352-2.352L8.67 16.776Z" fill="#99CB38"/></svg>