<svg width="27" height="30" viewBox="0 0 27 30" fill="none" xmlns="http://www.w3.org/2000/svg">
<path d="M25.1746 15.5225V28.0287C25.1746 28.6178 24.7184 29.0709 24.1255 29.0709H3.00615C2.41317 29.0709 1.95703 28.6178 1.95703 28.0287V15.5225" stroke="#333333" stroke-width="1.5"></path>
<path fill-rule="evenodd" clip-rule="evenodd" d="M26.0877 14.435C26.0877 15.024 25.6316 15.4771 25.0386 15.4771H2.04912C1.45614 15.4771 1 15.024 1 14.435V9.76777C1 9.17871 1.45614 8.72559 2.04912 8.72559H25.0386C25.6316 8.72559 26.0877 9.17871 26.0877 9.76777V14.435Z" stroke="#333333" stroke-width="1.5"></path>
<path fill-rule="evenodd" clip-rule="evenodd" d="M20.2956 5.41797C19.2921 6.41484 14.7307 9.31485 13.6815 8.31797C12.678 7.3211 15.5973 2.74453 16.6008 1.74766C17.6043 0.750781 19.2464 0.750781 20.2956 1.74766C21.2991 2.74453 21.2991 4.42109 20.2956 5.41797Z" stroke="#FBD846" stroke-width="1.5"></path>
<path fill-rule="evenodd" clip-rule="evenodd" d="M6.74677 5.41758C7.75028 6.41445 12.3573 9.35977 13.3608 8.36289C14.3643 7.36602 11.445 2.78945 10.3959 1.79258C9.39239 0.795703 7.75028 0.795703 6.74677 1.79258C5.74326 2.74414 5.74326 4.37539 6.74677 5.41758Z" stroke="#FBD846" stroke-width="1.5"></path>
<path d="M10.3965 12.3961C10.3965 12.3961 11.0807 10.3117 13.7263 9.26953V29.0258" stroke="#FBD846" stroke-width="1.5"></path>
<path d="M13.543 9.31445C13.543 9.31445 14.5921 12.9395 18.2412 13.4832" stroke="#FBD846" stroke-width="1.5"></path>
</svg>
