<svg width="32" height="35" fill="none" xmlns="http://www.w3.org/2000/svg"><path d="M31.22 3.604h-5.853l-7.215-2.568a2.824 2.824 0 0 0-1.345-.139 2.91 2.91 0 0 0-1.269.506L11.191 4.45a.443.443 0 0 0-.12.125.484.484 0 0 0-.069.346c.01.06.03.117.06.169.03.05.07.095.116.13a.407.407 0 0 0 .317.075.405.405 0 0 0 .154-.066l4.347-3.043c.278-.194.592-.319.92-.364.327-.045.66-.01.973.102L25.17 4.51a.384.384 0 0 0 .131.023h5.495v7.778H27.64a.398.398 0 0 0-.22.068.45.45 0 0 0-.157.182c-.475.878-1.202 1.561-2.067 1.945v-2.081a3.814 3.814 0 0 0 1.87-1.828.495.495 0 0 0-.049-.513.434.434 0 0 0-.129-.114.399.399 0 0 0-.47.053.459.459 0 0 0-.105.14c-.806 1.683-2.812 1.759-2.824 1.759-2.687 0-3.462-2.047-3.494-2.132a.46.46 0 0 0-.155-.215.4.4 0 0 0-.24-.082H15.61a1.05 1.05 0 0 1-.443-.085c-.14-.06-.269-.15-.377-.266a1.247 1.247 0 0 1-.254-.405 1.334 1.334 0 0 1 0-.96c.06-.153.145-.29.254-.405.108-.116.236-.206.377-.266.141-.06.292-.09.443-.085h4.76a.393.393 0 0 0 .168-.03.421.421 0 0 0 .143-.099.5.5 0 0 0 0-.67.421.421 0 0 0-.143-.098.393.393 0 0 0-.168-.03h-4.76a1.837 1.837 0 0 0-.77.153 1.974 1.974 0 0 0-.657.466 2.182 2.182 0 0 0-.44.707 2.335 2.335 0 0 0 0 1.674c.103.265.252.506.44.707.188.201.412.36.656.466.245.106.507.158.77.152h3.723c.354.71 1.49 2.429 4.164 2.429.286-.014.57-.057.849-.128v6.865a.717.717 0 0 1-.184.482.602.602 0 0 1-.443.2H1.813a.602.602 0 0 1-.442-.199.718.718 0 0 1-.185-.482V7.703c0-.181.066-.355.184-.483a.602.602 0 0 1 .442-.2h10.825a.393.393 0 0 0 .168-.03.421.421 0 0 0 .144-.099.5.5 0 0 0 0-.67.421.421 0 0 0-.144-.098.393.393 0 0 0-.168-.03H1.813c-.39.002-.765.172-1.041.474-.277.301-.433.71-.434 1.136v11.882c.001.427.157.835.434 1.137.276.301.65.471 1.041.473H23.72c.391-.002.766-.172 1.042-.473.277-.302.432-.71.434-1.137v-4.099c1.522-.529 2.374-1.726 2.685-2.25h3.34c.112 0 .22-.05.3-.136a.486.486 0 0 0 .125-.327V4.068a.486.486 0 0 0-.125-.328.408.408 0 0 0-.3-.136Z" fill="#000"/><path d="M3.215 16.083v-4.882a2.22 2.22 0 0 0 1.18-.682c.32-.35.538-.799.624-1.286h7.25a.41.41 0 0 0 .288-.142.487.487 0 0 0 .119-.321.487.487 0 0 0-.119-.321.41.41 0 0 0-.289-.142H4.635a.408.408 0 0 0-.3.135.486.486 0 0 0-.125.328c0 .204-.036.405-.107.594-.071.188-.176.359-.308.503a1.419 1.419 0 0 1-.46.337 1.317 1.317 0 0 1-.544.118.408.408 0 0 0-.297.136.486.486 0 0 0-.125.324v5.721a.5.5 0 0 0 .125.328.394.394 0 0 0 .3.135c.376 0 .737.164 1.003.455.266.29.416.684.416 1.094a.5.5 0 0 0 .125.328.394.394 0 0 0 .3.135h16.257a.394.394 0 0 0 .162-.035.426.426 0 0 0 .138-.1.47.47 0 0 0 .125-.328c0-.41.15-.804.416-1.094.266-.29.626-.454 1.003-.455a.394.394 0 0 0 .162-.035.423.423 0 0 0 .138-.1.468.468 0 0 0 .124-.328V14.41a.501.501 0 0 0-.117-.34.424.424 0 0 0-.14-.106.395.395 0 0 0-.474.106.473.473 0 0 0-.117.34v1.673a2.222 2.222 0 0 0-1.18.683 2.56 2.56 0 0 0-.625 1.286H5.02a2.561 2.561 0 0 0-.626-1.286 2.222 2.222 0 0 0-1.179-.683Z" fill="#FBD846"/><path d="M12.206 12.12h1.021a.41.41 0 0 0 .29-.142.487.487 0 0 0 .118-.32.487.487 0 0 0-.118-.322.41.41 0 0 0-.29-.142h-.333v-.298a.5.5 0 0 0-.118-.34.427.427 0 0 0-.14-.106.395.395 0 0 0-.473.106.5.5 0 0 0-.118.34v.31a1.297 1.297 0 0 0-.904.493 1.54 1.54 0 0 0-.326 1.044c.021.381.179.738.44.993.26.255.601.389.951.371h.526c.129 0 .253.056.344.156.091.1.143.235.143.376a.557.557 0 0 1-.143.375.467.467 0 0 1-.344.156h-1.02a.393.393 0 0 0-.168.03.422.422 0 0 0-.144.099.501.501 0 0 0 0 .67c.041.042.09.076.143.098.054.022.111.032.168.03h.334v.297c.004.12.05.233.13.316.08.082.184.129.294.129.11 0 .215-.046.294-.13a.484.484 0 0 0 .13-.315v-.311c.35-.029.675-.206.905-.494.23-.288.348-.663.327-1.045a1.51 1.51 0 0 0-.44-.993 1.267 1.267 0 0 0-.953-.37h-.526a.45.45 0 0 1-.192-.034.483.483 0 0 1-.164-.114.535.535 0 0 1-.11-.175.574.574 0 0 1 .11-.59.483.483 0 0 1 .164-.113.45.45 0 0 1 .192-.035ZM7.79 13.317a.487.487 0 0 0 .065.708.421.421 0 0 0 .237.078.41.41 0 0 0 .3-.136.473.473 0 0 0 .124-.327.493.493 0 0 0-.073-.256.435.435 0 0 0-.19-.169.391.391 0 0 0-.246-.025.415.415 0 0 0-.216.127ZM17.087 13.901a.517.517 0 0 0 .053.07.42.42 0 0 0 .157.109.39.39 0 0 0 .361-.039.442.442 0 0 0 .174-.22.465.465 0 0 0 .033-.175.503.503 0 0 0-.118-.341.426.426 0 0 0-.14-.106.395.395 0 0 0-.473.106.5.5 0 0 0-.118.34.54.54 0 0 0 .033.175c.01.028.023.055.038.081Z" fill="#FBD846"/><path d="M27.798 20.918a1.898 1.898 0 0 0-1.397-.463 1.951 1.951 0 0 0-1.317.69L22.4 24.312a.5.5 0 0 0 .012.668.42.42 0 0 0 .145.097.393.393 0 0 0 .333-.022.432.432 0 0 0 .134-.114l2.685-3.167c.198-.231.468-.373.758-.397.289-.025.576.07.804.267.12.103.22.232.293.378a1.367 1.367 0 0 1 .095.965 1.3 1.3 0 0 1-.212.437l-4.674 6.237c-.34.454-.823.752-1.355.836l-9.047 1.429c-.46.074-.898.262-1.28.55a3.22 3.22 0 0 0-.924 1.112l-.247.484H1.596l4.311-6.951a6.243 6.243 0 0 1 2.477-2.31 5.62 5.62 0 0 1 3.215-.579c.73.083 1.448.256 2.142.516.47.184.967.279 1.468.281h4.326c.332 0 .65.145.885.4.234.256.366.603.366.965 0 .39-.142.765-.396 1.041a1.297 1.297 0 0 1-.954.432h-3.964c-.649 0-1.277.247-1.777.7l-.93.843a.492.492 0 0 0-.047.645.4.4 0 0 0 .59.068l.93-.843a1.835 1.835 0 0 1 1.23-.485h3.967c.583 0 1.142-.254 1.554-.704.412-.45.644-1.06.645-1.695 0-.608-.222-1.19-.616-1.62a2.018 2.018 0 0 0-1.484-.672h-4.325a3.298 3.298 0 0 1-1.185-.228 9.74 9.74 0 0 0-2.33-.566 6.404 6.404 0 0 0-3.666.658A7.116 7.116 0 0 0 5.204 26.6l-4.76 7.673a.492.492 0 0 0 .131.66.399.399 0 0 0 .22.066h9.374c.076 0 .15-.023.215-.065a.45.45 0 0 0 .155-.177l.37-.727c.163-.318.39-.59.664-.798.275-.207.59-.342.92-.395l9.05-1.423a2.94 2.94 0 0 0 1.89-1.167l4.674-6.236c.168-.224.294-.482.37-.76a2.37 2.37 0 0 0-.166-1.677 2.145 2.145 0 0 0-.51-.657h-.003Z" fill="#000"/></svg>