<svg width="32" height="33" fill="none" xmlns="http://www.w3.org/2000/svg"><path d="M30.869 31.744H.642l.641.532V.776l-.641.532h30.227l-.642-.532V32.276c0 .689 1.284.689 1.284 0V.776c0-.291-.291-.533-.642-.533H.642C.29.242 0 .484 0 .775V32.276c0 .291.29.533.642.533h30.227c.83 0 .83-1.065 0-1.065Z" fill="#333"/><path d="M15.178.762V32.46c0 .693 1.288.693 1.288 0V.762c0-.693-1.288-.693-1.288 0Z" fill="#FBD846"/><path d="M.644 1.553h30.357c.833 0 .833-1.36 0-1.36H.644c-.833 0-.833 1.36 0 1.36Z" fill="#333"/><path d="M31 31.642H.644l.644.68V.865l-.644.68h30.357l-.645-.68v31.457c0 .879 1.289.879 1.289 0V.865c0-.371-.292-.68-.645-.68H.644C.292.186 0 .495 0 .866v31.457c0 .371.292.68.644.68h30.357c.833 0 .833-1.36 0-1.36Z" fill="#333"/><path d="M17.443 15.148v2.9c0 .879 1.289.879 1.289 0v-2.9c0-.87-1.289-.87-1.289 0ZM12.91 15.148v2.9c0 .879 1.289.879 1.289 0v-2.9c0-.87-1.289-.87-1.289 0Z" fill="#FBD846"/></svg>