<svg width="32" height="35" viewBox="0 0 32 35" fill="none" xmlns="http://www.w3.org/2000/svg">
<path d="M31.2197 3.60434H25.3672L18.152 1.03603C17.7187 0.881356 17.2593 0.834009 16.8072 0.897437C16.355 0.960866 15.9215 1.13347 15.5382 1.4027L11.1907 4.44994C11.1438 4.48276 11.1033 4.52535 11.0715 4.57526C11.0396 4.62517 11.0171 4.68143 11.0052 4.74083C10.9934 4.80022 10.9923 4.86159 11.0022 4.92144C11.012 4.98128 11.0326 5.03842 11.0626 5.08959C11.0927 5.14076 11.1318 5.18497 11.1775 5.21969C11.2232 5.25441 11.2748 5.27895 11.3293 5.29193C11.3837 5.3049 11.4399 5.30605 11.4948 5.29531C11.5496 5.28456 11.602 5.26214 11.6489 5.22931L15.9964 2.18612C16.274 1.99158 16.588 1.86714 16.9153 1.82187C17.2427 1.7766 17.5751 1.81164 17.8885 1.92444L25.1703 4.5089C25.2126 4.52406 25.2569 4.53169 25.3014 4.53151H30.7962V12.3099H27.6391C27.5613 12.31 27.485 12.3334 27.4186 12.3776C27.3521 12.4217 27.2981 12.4849 27.2623 12.5603C26.7867 13.4379 26.0604 14.1211 25.1948 14.5051V12.4238C25.8751 12.1072 26.6012 11.5564 27.0646 10.5961C27.0907 10.5422 27.1069 10.4833 27.1121 10.4226C27.1173 10.3619 27.1115 10.3007 27.095 10.2425C27.0786 10.1842 27.0518 10.1301 27.0161 10.0832C26.9805 10.0362 26.9367 9.99744 26.8873 9.96896C26.838 9.94048 26.7839 9.9229 26.7283 9.91721C26.6727 9.91152 26.6166 9.91783 26.5632 9.93579C26.5099 9.95376 26.4602 9.98301 26.4172 10.0219C26.3742 10.0608 26.3386 10.1085 26.3125 10.1624C25.5057 11.8455 23.4996 11.9206 23.4885 11.9206C20.8014 11.9206 20.0256 9.87406 19.9945 9.78926C19.9637 9.70189 19.9094 9.62673 19.8387 9.57368C19.768 9.52063 19.6843 9.49217 19.5985 9.49205H15.6107C15.4595 9.49627 15.3091 9.46741 15.1682 9.40719C15.0274 9.34697 14.899 9.25659 14.7907 9.14139C14.6824 9.02619 14.5963 8.8885 14.5375 8.73643C14.4787 8.58436 14.4485 8.42099 14.4485 8.25595C14.4485 8.09091 14.4787 7.92754 14.5375 7.77547C14.5963 7.62341 14.6824 7.48571 14.7907 7.37051C14.899 7.25531 15.0274 7.16494 15.1682 7.10471C15.3091 7.04449 15.4595 7.01564 15.6107 7.01986H20.3706C20.4278 7.02246 20.4849 7.01242 20.5385 6.99031C20.5921 6.96821 20.6411 6.93452 20.6824 6.89125C20.7237 6.84798 20.7566 6.79604 20.7791 6.73854C20.8016 6.68104 20.8132 6.61918 20.8132 6.55667C20.8132 6.49417 20.8016 6.4323 20.7791 6.37481C20.7566 6.31731 20.7237 6.26537 20.6824 6.2221C20.6411 6.17883 20.5921 6.14513 20.5385 6.12303C20.4849 6.10093 20.4278 6.09088 20.3706 6.09349H15.6107C15.3472 6.08793 15.0854 6.13976 14.8404 6.24594C14.5955 6.35212 14.3724 6.51052 14.1843 6.71187C13.9961 6.91322 13.8467 7.15349 13.7446 7.41862C13.6426 7.68374 13.59 7.9684 13.59 8.25595C13.59 8.5435 13.6426 8.82816 13.7446 9.09329C13.8467 9.35842 13.9961 9.59868 14.1843 9.80004C14.3724 10.0014 14.5955 10.1598 14.8404 10.266C15.0854 10.3721 15.3472 10.424 15.6107 10.4184H19.3327C19.6873 11.1283 20.8228 12.847 23.4974 12.847C23.7832 12.8332 24.0672 12.7902 24.3457 12.7186V19.5835C24.3455 19.7647 24.2795 19.9384 24.1621 20.0664C24.0447 20.1945 23.8855 20.2666 23.7194 20.2668H1.81321C1.64737 20.2666 1.48834 20.1948 1.37086 20.0671C1.25338 19.9393 1.187 19.7661 1.18622 19.5852V7.70312C1.18641 7.52197 1.25246 7.34831 1.36986 7.22022C1.48726 7.09212 1.64644 7.02007 1.81247 7.01986H12.6372C12.6944 7.02246 12.7515 7.01242 12.8051 6.99031C12.8587 6.96821 12.9077 6.93452 12.949 6.89125C12.9903 6.84798 13.0232 6.79604 13.0457 6.73854C13.0682 6.68104 13.0798 6.61918 13.0798 6.55667C13.0798 6.49417 13.0682 6.4323 13.0457 6.37481C13.0232 6.31731 12.9903 6.26537 12.949 6.2221C12.9077 6.17883 12.8587 6.14513 12.8051 6.12303C12.7515 6.10093 12.6944 6.09088 12.6372 6.09349H1.81321C1.42235 6.09498 1.04789 6.26504 0.77151 6.56659C0.49513 6.86813 0.339256 7.27668 0.337891 7.70312V19.5852C0.339256 20.0116 0.49513 20.4201 0.77151 20.7217C1.04789 21.0232 1.42235 21.1933 1.81321 21.1948H23.7194C24.1103 21.1933 24.4848 21.0232 24.7611 20.7217C25.0375 20.4201 25.1934 20.0116 25.1948 19.5852V15.4864C26.7167 14.9574 27.5687 13.7596 27.8797 13.2355H31.2197C31.3322 13.2355 31.4402 13.1867 31.5199 13.1C31.5995 13.0132 31.6444 12.8955 31.6446 12.7727V4.06792C31.6446 3.94497 31.5998 3.82706 31.5201 3.74012C31.4404 3.65318 31.3324 3.60434 31.2197 3.60434V3.60434Z" fill="black"></path>
<path d="M3.21525 16.0834V11.2012C3.66186 11.1076 4.07247 10.87 4.39405 10.5191C4.71563 10.1683 4.9334 9.72027 5.01924 9.23301H12.2685C12.378 9.22802 12.4816 9.17703 12.5574 9.09072C12.6333 9.0044 12.6757 8.88942 12.6757 8.76982C12.6757 8.65022 12.6333 8.53525 12.5574 8.44893C12.4816 8.36261 12.378 8.31163 12.2685 8.30664H4.63505C4.52236 8.30664 4.41428 8.35548 4.3346 8.44242C4.25491 8.52936 4.21014 8.64728 4.21014 8.77023C4.21044 8.97383 4.17396 9.17549 4.10279 9.36371C4.03163 9.55192 3.92717 9.72299 3.79539 9.86714C3.6636 10.0113 3.50708 10.1257 3.33476 10.2038C3.16244 10.282 2.97769 10.3223 2.79108 10.3225C2.67954 10.3234 2.57278 10.372 2.49384 10.458C2.4149 10.544 2.37011 10.6604 2.36914 10.7821V16.5034C2.36914 16.5642 2.38014 16.6245 2.4015 16.6807C2.42286 16.7369 2.45417 16.7879 2.49364 16.8309C2.5331 16.8739 2.57995 16.908 2.6315 16.9312C2.68304 16.9544 2.73828 16.9663 2.79404 16.9662C3.17035 16.9668 3.53106 17.1303 3.79708 17.4206C4.0631 17.711 4.21271 18.1047 4.21311 18.5152C4.2131 18.5761 4.2241 18.6363 4.24546 18.6925C4.26683 18.7487 4.29814 18.7998 4.3376 18.8428C4.37707 18.8857 4.42391 18.9198 4.47546 18.943C4.52701 18.9662 4.58224 18.9781 4.63801 18.978H20.8947C20.9504 18.9781 21.0057 18.9662 21.0572 18.943C21.1087 18.9198 21.1556 18.8857 21.1951 18.8428C21.2345 18.7998 21.2658 18.7487 21.2872 18.6925C21.3086 18.6363 21.3196 18.5761 21.3196 18.5152C21.3199 18.1047 21.4696 17.711 21.7356 17.4206C22.0016 17.1303 22.3623 16.9668 22.7386 16.9662C22.7944 16.9663 22.8496 16.9544 22.9012 16.9312C22.9527 16.908 22.9996 16.8739 23.039 16.8309C23.0785 16.7879 23.1098 16.7369 23.1312 16.6807C23.1525 16.6245 23.1635 16.5642 23.1635 16.5034V14.41C23.1659 14.3475 23.1567 14.2852 23.1364 14.2267C23.1162 14.1683 23.0853 14.1149 23.0456 14.0698C23.006 14.0246 22.9584 13.9887 22.9057 13.9642C22.853 13.9397 22.7963 13.9271 22.739 13.9271C22.6817 13.9271 22.625 13.9397 22.5723 13.9642C22.5196 13.9887 22.472 14.0246 22.4323 14.0698C22.3927 14.1149 22.3618 14.1683 22.3415 14.2267C22.3213 14.2852 22.3121 14.3475 22.3145 14.41V16.0834C21.8679 16.1773 21.4574 16.4149 21.1359 16.7658C20.8143 17.1166 20.5965 17.5645 20.5105 18.0516H5.01924C4.93322 17.5645 4.71538 17.1166 4.39383 16.7658C4.07229 16.4149 3.66177 16.1773 3.21525 16.0834V16.0834Z" fill="#FBD846"></path>
<path d="M12.206 12.1204H13.2275C13.3371 12.1154 13.4406 12.0644 13.5165 11.9781C13.5923 11.8918 13.6347 11.7768 13.6347 11.6572C13.6347 11.5376 13.5923 11.4226 13.5165 11.3363C13.4406 11.25 13.3371 11.199 13.2275 11.194H12.8937V10.896C12.8961 10.8336 12.8869 10.7712 12.8666 10.7128C12.8464 10.6543 12.8155 10.6009 12.7758 10.5558C12.7362 10.5107 12.6885 10.4748 12.6358 10.4502C12.5831 10.4257 12.5264 10.4131 12.4692 10.4131C12.4119 10.4131 12.3552 10.4257 12.3025 10.4502C12.2498 10.4748 12.2022 10.5107 12.1625 10.5558C12.1228 10.6009 12.092 10.6543 12.0717 10.7128C12.0514 10.7712 12.0422 10.8336 12.0446 10.896V11.2053C11.6956 11.2341 11.371 11.4115 11.1409 11.6992C10.9109 11.9869 10.7938 12.3619 10.8149 12.743C10.8361 13.1242 10.9939 13.4809 11.2542 13.7362C11.5145 13.9914 11.8564 14.1247 12.206 14.1072H12.7316C12.8608 14.1072 12.9846 14.1632 13.076 14.2629C13.1673 14.3625 13.2187 14.4977 13.2187 14.6386C13.2187 14.7796 13.1673 14.9147 13.076 15.0144C12.9846 15.1141 12.8608 15.1701 12.7316 15.1701H11.7115C11.6543 15.1675 11.5971 15.1775 11.5435 15.1996C11.49 15.2217 11.441 15.2554 11.3997 15.2987C11.3583 15.3419 11.3254 15.3939 11.3029 15.4514C11.2805 15.5089 11.2689 15.5707 11.2689 15.6332C11.2689 15.6958 11.2805 15.7576 11.3029 15.8151C11.3254 15.8726 11.3583 15.9246 11.3997 15.9678C11.441 16.0111 11.49 16.0448 11.5435 16.0669C11.5971 16.089 11.6543 16.099 11.7115 16.0964H12.0446V16.3944C12.0492 16.5139 12.0959 16.6269 12.175 16.7097C12.2542 16.7925 12.3595 16.8387 12.4692 16.8387C12.5788 16.8387 12.6842 16.7925 12.7633 16.7097C12.8424 16.6269 12.8891 16.5139 12.8937 16.3944V16.0827C13.243 16.0543 13.568 15.8769 13.7983 15.5891C14.0287 15.3012 14.1459 14.926 14.1246 14.5445C14.1032 14.1631 13.9451 13.8062 13.6844 13.5509C13.4238 13.2957 13.0814 13.1628 12.7316 13.1808H12.206C12.1406 13.1836 12.0753 13.172 12.0141 13.1466C11.9529 13.1212 11.8971 13.0826 11.8499 13.0331C11.8027 12.9836 11.7652 12.9242 11.7395 12.8585C11.7139 12.7927 11.7007 12.722 11.7007 12.6506C11.7007 12.5792 11.7139 12.5085 11.7395 12.4428C11.7652 12.3771 11.8027 12.3177 11.8499 12.2682C11.8971 12.2187 11.9529 12.1801 12.0141 12.1547C12.0753 12.1293 12.1406 12.1176 12.206 12.1204Z" fill="#FBD846"></path>
<path d="M7.79038 13.3169C7.71192 13.4028 7.66729 13.5187 7.66602 13.6399C7.66597 13.6706 7.66894 13.7012 7.6749 13.7312C7.6801 13.7606 7.6883 13.7894 7.69933 13.8168C7.70948 13.8453 7.72265 13.8724 7.73856 13.8976C7.75354 13.9227 7.77091 13.9459 7.79038 13.967C7.8101 13.9886 7.83167 14.0081 7.85478 14.0252C7.87816 14.0418 7.90295 14.0558 7.92881 14.0672C7.95467 14.0789 7.98142 14.0881 8.00875 14.0946C8.0361 14.1002 8.06385 14.1029 8.09166 14.1027C8.20407 14.1023 8.31179 14.0535 8.39146 13.967C8.41118 13.9458 8.42902 13.9225 8.44476 13.8976C8.45957 13.8717 8.47268 13.8447 8.48399 13.8168C8.49378 13.7889 8.5017 13.7603 8.50768 13.7312C8.5134 13.7012 8.51613 13.6706 8.51583 13.6399C8.51519 13.5486 8.48982 13.4596 8.44289 13.384C8.39596 13.3084 8.32958 13.2496 8.2521 13.215C8.17463 13.1805 8.08952 13.1717 8.00749 13.1899C7.92546 13.208 7.85018 13.2522 7.79112 13.3169H7.79038Z" fill="#FBD846"></path>
<path d="M17.0871 13.9011C17.103 13.9258 17.1208 13.9491 17.1404 13.9705C17.1845 14.0191 17.2381 14.0564 17.2971 14.0796C17.3561 14.1028 17.4191 14.1114 17.4816 14.1048C17.544 14.0981 17.6043 14.0764 17.6581 14.0412C17.7119 14.0059 17.7578 13.9581 17.7925 13.9011C17.8084 13.8759 17.8216 13.8488 17.8318 13.8203C17.8428 13.7928 17.851 13.7641 17.8562 13.7347C17.8621 13.7052 17.865 13.6752 17.8651 13.645C17.8675 13.5826 17.8582 13.5203 17.838 13.4618C17.8177 13.4033 17.7868 13.3499 17.7472 13.3048C17.7075 13.2597 17.6599 13.2238 17.6072 13.1993C17.5545 13.1748 17.4978 13.1621 17.4405 13.1621C17.3832 13.1621 17.3265 13.1748 17.2738 13.1993C17.2211 13.2238 17.1735 13.2597 17.1339 13.3048C17.0942 13.3499 17.0633 13.4033 17.0431 13.4618C17.0228 13.5203 17.0136 13.5826 17.016 13.645C17.0162 13.6751 17.0189 13.7051 17.0241 13.7347C17.03 13.7639 17.0382 13.7926 17.0486 13.8203C17.0593 13.8483 17.0722 13.8753 17.0871 13.9011Z" fill="#FBD846"></path>
<path d="M27.7981 20.9175C27.4018 20.5777 26.9031 20.4125 26.4005 20.4547C25.898 20.4969 25.4283 20.7433 25.0843 21.1452L22.3994 24.312C22.3589 24.3561 22.327 24.4087 22.3056 24.4665C22.2841 24.5244 22.2736 24.5865 22.2747 24.6489C22.2758 24.7113 22.2884 24.7729 22.3118 24.8298C22.3353 24.8868 22.369 24.938 22.411 24.9804C22.453 25.0228 22.5024 25.0555 22.5563 25.0766C22.6102 25.0976 22.6674 25.1066 22.7245 25.1029C22.7816 25.0992 22.8375 25.083 22.8887 25.0552C22.94 25.0274 22.9855 24.9886 23.0227 24.9411L25.7076 21.7744C25.9056 21.5428 26.1761 21.4008 26.4656 21.3766C26.755 21.3524 27.0422 21.4476 27.2703 21.6435C27.3899 21.7472 27.4894 21.8757 27.5631 22.0217C27.6368 22.1677 27.6832 22.3282 27.6995 22.4939C27.7158 22.6596 27.7018 22.8272 27.6582 22.9869C27.6146 23.1467 27.5424 23.2954 27.4457 23.4244L22.7718 29.661C22.4323 30.1152 21.9488 30.4135 21.4171 30.4969L12.3698 31.9256C11.9102 31.9996 11.4724 32.188 11.0902 32.4763C10.7081 32.7645 10.3919 33.1448 10.166 33.5877L9.91879 34.0723H1.59615L5.90737 27.121C6.52429 26.1187 7.38075 25.3197 8.38403 24.8105C9.3873 24.3013 10.4991 24.1012 11.5992 24.232C12.3287 24.3146 13.0472 24.4877 13.7407 24.7481C14.2119 24.9319 14.7082 25.0269 15.2086 25.0292H19.5354C19.8671 25.0296 20.185 25.1735 20.4196 25.4294C20.6541 25.6853 20.786 26.0322 20.7864 26.3941C20.786 26.7846 20.6436 27.1591 20.3905 27.4353C20.1374 27.7114 19.7942 27.8668 19.4362 27.8672H15.4721C14.8233 27.8671 14.1948 28.1145 13.6955 28.5666L12.7643 29.4098C12.681 29.4894 12.6295 29.6014 12.6207 29.7218C12.6119 29.8423 12.6466 29.9617 12.7173 30.0546C12.7881 30.1476 12.8893 30.2068 12.9994 30.2195C13.1095 30.2323 13.2199 30.1976 13.3069 30.123L14.2374 29.2798C14.5833 28.967 15.0184 28.7956 15.4677 28.7952H19.4347C20.0178 28.7943 20.5767 28.5413 20.989 28.0915C21.4013 27.6416 21.6332 27.0318 21.634 26.3957C21.6332 25.7883 21.4117 25.206 21.018 24.7765C20.6244 24.3469 20.0906 24.1053 19.5339 24.1044H15.2086C14.8048 24.102 14.4043 24.0247 14.0242 23.8758C13.2695 23.5911 12.4874 23.4014 11.6932 23.3105C10.4394 23.1607 9.172 23.3881 8.02818 23.9679C6.88437 24.5478 5.90777 25.458 5.20413 26.6L0.444323 34.2726C0.400224 34.3423 0.374479 34.4239 0.369885 34.5085C0.365291 34.5931 0.382024 34.6774 0.418266 34.7523C0.454508 34.8272 0.508874 34.8899 0.575457 34.9335C0.642041 34.977 0.718297 34.9999 0.795942 34.9995H10.169C10.2449 34.999 10.3193 34.9762 10.3844 34.9336C10.4495 34.8909 10.5029 34.83 10.5391 34.7572L10.9092 34.0303C11.0716 33.7122 11.2989 33.4391 11.5734 33.2321C11.848 33.0252 12.1625 32.8898 12.4926 32.8366L21.5422 31.4136C22.2841 31.2972 22.9589 30.881 23.4328 30.2473L28.1067 24.0107C28.2751 23.7868 28.4009 23.5286 28.4768 23.251C28.5527 22.9735 28.5772 22.6823 28.5488 22.3943C28.5204 22.1063 28.4397 21.8274 28.3115 21.5739C28.1832 21.3203 28.0099 21.0972 27.8018 20.9175H27.7981Z" fill="black"></path>
</svg>
