<svg width="32" height="35" fill="none" xmlns="http://www.w3.org/2000/svg"><path d="M.086 35h31.837L.085.114v34.888Zm.988-4.874H4.04v-1.083H1.074v-3.25h1.977V24.71H1.074v-3.25H4.04v-1.083H1.074v-3.25h1.977v-1.083H1.074v-3.25H4.04v-1.083H1.074V2.728l28.462 31.19H1.074v-3.792Z" fill="#333"/><path d="M6.511 15.278v14.848h13.55L6.51 15.278Zm.989 2.615 10.174 11.15H7.5v-11.15Z" fill="#333"/><path d="M31.905 25.455 30.683 20.1 12.443.113 8.78 4.13l18.24 19.987 4.886 1.339Zm-1.36-1.49-3.021-.827-14.382-15.76 2.267-2.483L29.79 20.654l.756 3.311ZM12.445 1.645l2.266 2.484-2.266 2.484-2.267-2.484 2.267-2.484Z" fill="#FBD846"/></svg>