<svg width="22" height="13" fill="none" xmlns="http://www.w3.org/2000/svg"><path d="M21.024 11.336c-.025-.055-.05-.1-.071-.138-.367-.66-1.068-1.47-2.102-2.432l-.022-.022-.011-.01-.011-.012h-.011c-.47-.447-.767-.748-.892-.902-.227-.294-.278-.59-.154-.892.088-.227.419-.707.99-1.441.302-.389.54-.7.716-.935 1.27-1.688 1.82-2.766 1.65-3.236l-.065-.11c-.044-.066-.158-.126-.34-.181-.184-.055-.42-.064-.705-.028l-3.17.022a.411.411 0 0 0-.22.006l-.143.033-.055.027-.044.034a.49.49 0 0 0-.121.115.753.753 0 0 0-.11.193 17.975 17.975 0 0 1-1.177 2.476c-.272.455-.521.849-.749 1.183a5.69 5.69 0 0 1-.572.737 4.001 4.001 0 0 1-.418.38c-.125.095-.22.135-.286.12a8.174 8.174 0 0 1-.188-.043.732.732 0 0 1-.247-.27 1.206 1.206 0 0 1-.127-.43 4.727 4.727 0 0 1-.038-.445c-.004-.125-.002-.3.005-.528.008-.228.011-.382.011-.462 0-.28.006-.582.017-.908.01-.327.02-.586.027-.776.008-.19.011-.393.011-.605 0-.213-.013-.38-.038-.501a1.71 1.71 0 0 0-.116-.352.592.592 0 0 0-.225-.264 1.271 1.271 0 0 0-.369-.15c-.389-.087-.884-.135-1.486-.142C8.804.432 7.928.52 7.538.71c-.154.08-.293.19-.418.33-.132.162-.15.25-.055.264.44.066.752.224.935.473l.067.133c.051.095.102.264.154.506.051.242.084.51.099.803.036.536.036.994 0 1.376-.037.381-.072.678-.105.89a1.785 1.785 0 0 1-.148.518c-.067.132-.11.213-.133.242a.19.19 0 0 1-.054.055.824.824 0 0 1-.298.055c-.102 0-.227-.051-.374-.154a2.64 2.64 0 0 1-.456-.423 5.664 5.664 0 0 1-.534-.754A13.156 13.156 0 0 1 5.6 3.88l-.176-.319c-.11-.205-.26-.504-.45-.897-.192-.392-.36-.772-.507-1.139a.725.725 0 0 0-.264-.352l-.055-.033a.754.754 0 0 0-.176-.094A1.168 1.168 0 0 0 3.72.975L.704.997c-.308 0-.517.07-.627.209l-.044.066A.356.356 0 0 0 0 1.448c0 .08.022.18.066.297.44 1.035.919 2.032 1.436 2.993.517.962.967 1.736 1.348 2.322.382.587.77 1.141 1.167 1.662.396.52.658.855.786 1.001.129.147.23.257.303.33l.275.265c.176.176.435.387.776.632.341.246.72.488 1.134.727.414.238.897.433 1.447.583.55.15 1.086.21 1.607.182h1.265c.257-.022.451-.103.583-.242l.044-.056a.73.73 0 0 0 .083-.203 1.12 1.12 0 0 0 .038-.303c-.007-.315.017-.6.072-.852.054-.253.117-.444.187-.573a1.407 1.407 0 0 1 .424-.484.716.716 0 0 1 .088-.038c.176-.059.383-.002.622.17.238.173.462.386.67.639.21.253.461.537.755.853.293.315.55.55.77.704l.22.132c.147.088.338.169.572.242.235.074.44.092.617.055l2.817-.044c.278 0 .495-.046.649-.137.154-.092.245-.193.275-.303a.852.852 0 0 0 .006-.374 1.38 1.38 0 0 0-.078-.292Z" fill="#99CB38"/></svg>