<svg width="50" height="51" fill="none" xmlns="http://www.w3.org/2000/svg"><circle cx="25" cy="25.5" r="25" fill="#FBD846"/><path d="M20.333 16.012V32.84s-.31 3.532 4.235 3.532c4.099 0 4.099-3.532 4.099-3.532V15.142s0-4.642-5.834-4.642C17 10.5 17 15.142 17 15.142v17.697s0 6.673 7.5 6.673 7.5-6.673 7.5-6.673V15.142c0-.725-1.667-.725-1.667 0v17.697s.607 5.354-5.833 5.354c-5.833 0-5.833-5.354-5.833-5.354V15.142s0-3.323 4.166-3.323C27 11.819 27 15.142 27 15.142v17.697s0 2.081-2.432 2.081c-2.431 0-2.568-2.08-2.568-2.08V16.011c0-.725-1.667-.725-1.667 0Z" fill="#fff"/></svg>