<svg width="27" height="30" fill="none" xmlns="http://www.w3.org/2000/svg"><path d="M25.175 15.523v12.506c0 .589-.457 1.042-1.05 1.042H3.006c-.593 0-1.049-.453-1.049-1.042V15.523" stroke="#333" stroke-width="1.5"/><path clip-rule="evenodd" d="M26.088 14.435c0 .589-.456 1.042-1.05 1.042H2.05c-.593 0-1.049-.453-1.049-1.042V9.768c0-.59.456-1.042 1.05-1.042h22.989c.593 0 1.049.453 1.049 1.042v4.667Z" stroke="#333" stroke-width="1.5"/><path clip-rule="evenodd" d="M20.296 5.418c-1.004.997-5.565 3.897-6.614 2.9-1.004-.997 1.915-5.573 2.919-6.57 1.003-.997 2.645-.997 3.695 0 1.003.997 1.003 2.673 0 3.67Z" stroke="#FBD846" stroke-width="1.5"/><path clip-rule="evenodd" d="M6.747 5.418c1.003.996 5.61 3.942 6.614 2.945 1.003-.997-1.916-5.574-2.965-6.57a2.6 2.6 0 0 0-3.65 0c-1.003.951-1.003 2.582 0 3.625Z" stroke="#FBD846" stroke-width="1.5"/><path d="M10.396 12.396s.685-2.084 3.33-3.126v19.756" stroke="#FBD846" stroke-width="1.5"/><path d="M13.543 9.314s1.05 3.626 4.698 4.17" stroke="#FBD846" stroke-width="1.5"/></svg>