<svg width="32" height="32" fill="none" xmlns="http://www.w3.org/2000/svg"><path d="M18.127 16.194c0-.953-.68-1.748-1.592-1.978V9.018a.522.522 0 0 0-.531-.512c-.293 0-.53.229-.53.512v5.198a2.085 2.085 0 0 0-1.517 1.465h-3.79c-.293 0-.53.23-.53.513 0 .283.237.512.53.512h3.79c.237.882 1.061 1.538 2.047 1.538 1.17 0 2.122-.92 2.122-2.05Zm-2.123 1.025c-.585 0-1.061-.46-1.061-1.025 0-.566.476-1.025 1.061-1.025s1.061.46 1.061 1.025-.476 1.025-1.061 1.025ZM16.005 5.944c.293 0 .53-.23.53-.513V4.92a.522.522 0 0 0-.53-.513c-.293 0-.53.23-.53.513v.512c0 .284.237.513.53.513ZM15.475 26.957v.512c0 .284.237.513.53.513.293 0 .53-.23.53-.513v-.512a.522.522 0 0 0-.53-.513c-.293 0-.53.23-.53.513ZM27.677 16.707c.292 0 .53-.23.53-.513a.522.522 0 0 0-.53-.512h-.531c-.293 0-.53.229-.53.512 0 .284.237.513.53.513h.53ZM4.331 15.682c-.293 0-.53.229-.53.512 0 .284.237.513.53.513h.531c.293 0 .53-.23.53-.513a.522.522 0 0 0-.53-.512h-.53Z" fill="#000"/><path d="M23.882 9.096c.136 0 .272-.05.375-.15l.376-.363a.5.5 0 0 0 0-.725.543.543 0 0 0-.75 0l-.376.363a.5.5 0 0 0 0 .724c.104.1.24.15.375.15ZM7.75 23.442l-.376.363a.5.5 0 0 0 0 .724c.104.1.24.15.375.15.136 0 .272-.05.376-.15l.375-.362a.5.5 0 0 0 0-.725.543.543 0 0 0-.75 0ZM8.5 8.22l-.375-.362a.543.543 0 0 0-.75 0 .5.5 0 0 0 0 .725l.374.362c.104.1.24.15.376.15.135 0 .271-.05.375-.15a.5.5 0 0 0 0-.724Z" fill="#FBD846"/><path d="M16.004.88C7.227.88.086 7.779.086 16.258c0 8.478 7.14 15.375 15.918 15.375 1.898 0 3.756-.32 5.526-.953a.508.508 0 0 0 .314-.658.535.535 0 0 0-.682-.303 15.3 15.3 0 0 1-5.158.889c-8.192 0-14.857-6.438-14.857-14.35 0-7.913 6.665-14.351 14.857-14.351s14.857 6.438 14.857 14.35c0 1.712-.31 3.388-.92 4.982a.508.508 0 0 0 .313.658c.275.1.58-.037.682-.302.655-1.708.987-3.504.987-5.338 0-8.478-7.141-15.375-15.919-15.375Z" fill="#000"/><path d="M26.617 21.946v-.564a.522.522 0 0 0-.53-.513c-.293 0-.531.23-.531.513v.566a2.665 2.665 0 0 0-1.495.855c-.324.37-.475.843-.421 1.334.054.502.321.967.733 1.277l1.183.888v2.787c-.616-.212-1.061-.776-1.061-1.443a.522.522 0 0 0-.53-.513c-.294 0-.531.23-.531.513 0 1.237.913 2.272 2.122 2.51v.451c0 .284.238.512.53.512.294 0 .531-.229.531-.512v-.452a2.668 2.668 0 0 0 1.496-.855c.324-.371.474-.845.42-1.335a1.854 1.854 0 0 0-.733-1.275l-1.183-.89v-2.787c.616.213 1.061.776 1.061 1.444 0 .283.238.512.531.512.293 0 .53-.229.53-.512 0-1.237-.913-2.273-2.122-2.511Zm.531 5.553a.835.835 0 0 1 .33.573.73.73 0 0 1-.175.566c-.185.21-.424.358-.686.448V27.1l.531.4Zm-2.123-2.895a.835.835 0 0 1-.33-.574.732.732 0 0 1 .175-.566c.185-.21.424-.358.686-.448v1.987l-.531-.399Z" fill="#FBD846"/></svg>